SplineFontDB: 1.0
FontName: TengwarParmaite
FullName: Tengwar Parmaite
FamilyName: TengwarParmaite
Weight: Weight?
Copyright: Tengwar font by Måns Björkman © 1998-2002, coded by Conrado Badenas following Tengwar proposal to Unicode by Michael Everson
Version: 1.2b
ItalicAngle: 0
UnderlinePosition: -133
UnderlineWidth: 20
Ascent: 1343
Descent: 705
FSType: 0
PfmFamily: 81
TTFWeight: 400
TTFWidth: 5
Panose: 0 0 4 0 0 0 0 0 0 0LineGap: 0
VLineGap: 0

LangName: 1033 "Tengwar font by M+AOUA-ns Bj+APYA-rkman +AKkA 1998-2002, coded by Conrado Badenas following Tengwar proposal to Unicode by Michael Everson" "Tengwar Parmaite" "Regular" "Tengwar Parmaite" "Tengwar Parmaite" "1.2b" "TengwarParmaite" 
Encoding: custom
DisplaySize: -48
AntiAlias: 1
BeginChars: 128 93
StartChar: tinco
Encoding: 0 77824
Width: 768
Flags: HW
Fore
200 511 m 1
 250.667 562.333 295 598.333 333 619 c 0
 379 643.667 433 656 495 656 c 0
 551 656 603.167 632.667 651.5 586 c 0
 699.833 539.333 724 488 724 432 c 0
 724 357.333 685 268 607 164 c 0
 525 54.6667 448 -3.46945e-18 376 0 c 0
 347.333 0 317.333 27.3333 286 82 c 1
 384 210 l 1
 424 176.667 459.333 160 490 160 c 0
 544 160 571 196.667 571 270 c 0
 571 325.333 552.667 377.333 516 426 c 0
 476 478.667 429.333 505 376 505 c 0
 325.333 505 266.667 474 200 412 c 1
 200 -452 l 2
 200 -504 182 -547.333 146 -582 c 0
 123.333 -602.667 78.3333 -621.333 11 -638 c 1
 41.6667 -503.333 57 -365.333 57 -224 c 2
 57 410 l 2
 57 455.333 38 492.667 0 522 c 1
 30.6667 557.333 73.6667 608.333 129 675 c 1
 165 646.333 188.667 591.667 200 511 c 1
EndSplineSet
EndChar
StartChar: parma
Encoding: 1 77825
Width: 768
Flags: HW
Fore
200 190 m 1
 555 190 l 1
 565.667 208.667 571 235.333 571 270 c 0
 571 325.333 552.667 377.333 516 426 c 0
 476 478.667 429.333 505 376 505 c 0
 325.333 505 266.667 474 200 412 c 1
 200 190 l 1
200 511 m 1
 250.667 562.333 295 598.333 333 619 c 0
 379 643.667 433 656 495 656 c 0
 551 656 603.167 632.667 651.5 586 c 0
 699.833 539.333 724 488 724 432 c 0
 724 363.333 693 282.667 631 190 c 1
 651.667 190.667 682.333 199 723 215 c 1
 727 181.667 682.667 110 590 0 c 1
 200 0 l 1
 200 -452 l 2
 200 -547.333 137 -609.333 11 -638 c 1
 41.6667 -503.333 57 -365.333 57 -224 c 2
 57 410 l 2
 57 455.333 38 492.667 0 522 c 1
 30.6667 557.333 73.6667 608.333 129 675 c 1
 165 646.333 188.667 591.667 200 511 c 1
EndSplineSet
EndChar
StartChar: calma
Encoding: 2 77826
Width: 768
Flags: HW
Fore
524 144 m 1
 474 93.3333 429.667 58 391 38 c 0
 343.667 12.6667 289.667 -8.67362e-19 229 0 c 0
 172.333 0 120 23.1667 72 69.5 c 0
 24 115.833 0 167.333 0 224 c 0
 0 300.667 38.6667 390.333 116 493 c 0
 197.333 601.667 274.667 656 348 656 c 0
 376.667 656 406.667 628.667 438 574 c 1
 340 446 l 1
 300 478.667 264.333 495 233 495 c 0
 179 495 152 458.667 152 386 c 0
 152 331.333 170.667 279.333 208 230 c 0
 248.667 177.333 295.333 151 348 151 c 0
 396.667 151 455.333 181.667 524 243 c 1
 524 488 l 2
 524 555.333 587 617.667 713 675 c 1
 682.333 539.667 667 401.667 667 261 c 2
 667 -373 l 2
 667 -418.333 679 -456 703 -486 c 1
 574 -638 l 1
 540.667 -585.333 524 -531 524 -475 c 2
 524 144 l 1
EndSplineSet
EndChar
StartChar: quesse
Encoding: 3 77827
Width: 768
Flags: HW
Fore
679 513 m 1
 671 464.333 667 380.333 667 261 c 2
 667 -373 l 2
 667 -418.333 679 -456 703 -486 c 1
 574 -638 l 1
 540.667 -585.333 524 -531 524 -475 c 2
 524 144 l 1
 474 93.3333 429.667 58 391 38 c 0
 343.667 12.6667 289.667 -8.67362e-19 229 0 c 0
 172.333 0 120 23.1667 72 69.5 c 0
 24 115.833 0 167.333 0 224 c 0
 0 298 38.6667 387 116 491 c 1
 83.3333 491 63.6667 490.667 57 490 c 0
 34.3333 488 15.3333 482.333 0 473 c 1
 61.3333 611 113.333 680 156 680 c 2
 759 682 l 1
 745.667 646 719 589.667 679 513 c 1
524 495 m 1
 206 491 l 1
 170 478.333 152 443.333 152 386 c 0
 152 331.333 170.667 279.333 208 230 c 0
 248.667 177.333 295.333 151 348 151 c 0
 401.333 151 460 181.667 524 243 c 1
 524 495 l 1
EndSplineSet
EndChar
StartChar: ando
Encoding: 4 77828
Width: 1260
Flags: HW
Fore
200 -452 m 2
 200 -504 182 -547.333 146 -582 c 0
 123.333 -602.667 78.3333 -621.333 11 -638 c 1
 41.6667 -503.333 57 -365.333 57 -224 c 2
 57 410 l 2
 57 455.333 38 492.667 0 522 c 1
 30.6667 557.333 73.6667 608.333 129 675 c 1
 165 646.333 188.667 591.667 200 511 c 1
 250.667 562.333 295 598.333 333 619 c 0
 379 643.667 433 656 495 656 c 0
 581 656 648 612.667 696 526 c 1
 744.667 572.667 787 605.333 823 624 c 0
 867 645.333 918.333 656 977 656 c 0
 1033.67 656 1086 632.833 1134 586.5 c 0
 1182 540.167 1206 488.667 1206 432 c 0
 1206 358 1167 268.667 1089 164 c 0
 1007.67 54.6667 930.667 -3.46945e-18 858 0 c 0
 829.333 0 799.333 27.3333 768 82 c 1
 866 210 l 1
 906 176.667 941.667 160 973 160 c 0
 1027 160 1054 196.667 1054 270 c 0
 1054 324.667 1035.33 376.667 998 426 c 0
 957.333 478.667 910.667 505 858 505 c 0
 820 505 775 485.667 723 447 c 1
 723.667 440.333 724 433.667 724 427 c 0
 724 355.667 685 268 607 164 c 0
 525 54.6667 448 -3.46945e-18 376 0 c 0
 347.333 0 317.333 27.3333 286 82 c 1
 384 210 l 1
 424 176.667 459.333 160 490 160 c 0
 544 160 571 196.667 571 270 c 0
 571 325.333 552.667 377.333 516 426 c 0
 476 478.667 429.333 505 376 505 c 0
 325.333 505 266.667 474 200 412 c 1
 200 -452 l 2
EndSplineSet
EndChar
StartChar: umbar
Encoding: 5 77829
Width: 1260
Flags: HW
Fore
200 511 m 1
 294.667 607.667 392.333 656 493 656 c 0
 580.333 656 648 612.667 696 526 c 1
 786 612.667 879 656 975 656 c 0
 1032.33 656 1085.17 632.833 1133.5 586.5 c 0
 1181.83 540.167 1206 488.667 1206 432 c 0
 1206 366 1173.33 285.333 1108 190 c 1
 1138 190 1172.33 198.333 1211 215 c 1
 1211.67 213.667 1212 212.333 1212 211 c 0
 1212 175 1167.67 104.667 1079 0 c 1
 200 0 l 1
 200 -452 l 2
 200 -547.333 137 -609.333 11 -638 c 1
 41.6667 -503.333 57 -365.333 57 -224 c 2
 57 410 l 2
 57 455.333 38 492.667 0 522 c 1
 30.6667 557.333 73.6667 608.333 129 675 c 1
 165 646.333 188.667 591.667 200 511 c 1
376 505 m 0
 325.333 505 266.667 474 200 412 c 1
 200 190 l 1
 551 190 l 1
 564.333 209.333 571 236 571 270 c 0
 571 325.333 552.667 377.333 516 426 c 0
 476 478.667 429.333 505 376 505 c 0
1054 270 m 0
 1054 324.667 1035.33 376.667 998 426 c 0
 957.333 478.667 910.667 505 858 505 c 0
 820 505 775 485.667 723 447 c 1
 723.667 441 724 434.667 724 428 c 0
 724 364.667 691.333 285.333 626 190 c 1
 1033 190 l 1
 1047 209.333 1054 236 1054 270 c 0
EndSplineSet
EndChar
StartChar: anga
Encoding: 6 77830
Width: 1260
Flags: HW
Fore
835 151 m 0
 889 151 948 181.667 1012 243 c 1
 1012 488 l 2
 1012 555.333 1075 617.667 1201 675 c 1
 1169.67 539.667 1154 401.667 1154 261 c 2
 1154 -373 l 2
 1154 -418.333 1166.33 -456 1191 -486 c 1
 1061 -638 l 1
 1028.33 -585.333 1012 -531 1012 -475 c 1
 1011 144 l 1
 961.667 93.3333 917.333 57.6667 878 37 c 0
 831.333 12.3333 777.333 8.67362e-19 716 0 c 0
 628.667 0 561 44.3333 513 133 c 1
 463.667 85 420.667 51.6667 384 33 c 0
 340.667 11 289 0 229 0 c 0
 172.333 0 120 23.1667 72 69.5 c 0
 24 115.833 0 167.333 0 224 c 0
 0 300.667 38.6667 390.333 116 493 c 0
 197.333 601.667 274.667 656 348 656 c 0
 376.667 656 406.667 628.667 438 574 c 1
 340 446 l 1
 300 478.667 264.333 495 233 495 c 0
 179 495 152 458.667 152 386 c 0
 152 331.333 170.667 279.333 208 230 c 0
 248.667 177.333 295.333 151 348 151 c 0
 386.667 151 433.333 172 488 214 c 1
 488 224 l 2
 488 300.667 526.667 390.667 604 494 c 0
 684.667 602 761.667 656 835 656 c 0
 863.667 656 894 628.667 926 574 c 1
 827 446 l 1
 787.667 478.667 752.333 495 721 495 c 0
 667 495 640 458.667 640 386 c 0
 640 331.333 658.333 279.333 695 230 c 0
 735 177.333 781.667 151 835 151 c 0
EndSplineSet
EndChar
StartChar: ungwe
Encoding: 7 77831
Width: 1260
Flags: HW
Fore
602 489 m 1
 206 491 l 1
 170 478.333 152 443.333 152 386 c 0
 152 331.333 170.667 279.333 208 230 c 0
 248.667 177.333 295.333 151 348 151 c 0
 386.667 151 433.333 172 488 214 c 1
 488 294 526 385.667 602 489 c 1
1163 489 m 1
 1157 440.333 1154 364.333 1154 261 c 2
 1154 -373 l 2
 1154 -418.333 1166.33 -456 1191 -486 c 1
 1061 -638 l 1
 1028.33 -585.333 1012 -531 1012 -475 c 1
 1011 144 l 1
 961.667 93.3333 917.333 57.6667 878 37 c 0
 831.333 12.3333 777.333 8.67362e-19 716 0 c 0
 628.667 0 561 44.3333 513 133 c 1
 463.667 85 420.667 51.6667 384 33 c 0
 340.667 11 289 0 229 0 c 0
 172.333 0 120 23.1667 72 69.5 c 0
 24 115.833 0 167.333 0 224 c 0
 0 298 38.6667 387 116 491 c 1
 58.6667 491 20 485 0 473 c 1
 61.3333 611 113.333 680 156 680 c 2
 1260 682 l 1
 1243.33 636.667 1212.33 572.333 1167 489 c 1
 1163 489 l 1
1012 489 m 1
 687 488 l 1
 655.667 474 640 440 640 386 c 0
 640 331.333 658.333 279.333 695 230 c 0
 735 177.333 781.667 151 835 151 c 0
 889 151 948 181.667 1012 243 c 1
 1012 489 l 1
EndSplineSet
EndChar
StartChar: thuule_(suule)
Encoding: 8 77832
Width: 768
Flags: HW
Fore
200 186 m 2
 200 134 182 91 146 57 c 0
 123.333 35.6667 78.3333 16.6667 11 0 c 1
 41.6667 134.667 57 272.667 57 414 c 2
 57 1048 l 2
 57 1093.33 38 1130.67 0 1160 c 1
 30.6667 1195.33 73.6667 1246.33 129 1313 c 1
 165 1284.33 188.667 1223.33 200 1130 c 1
 200 511 l 1
 250.667 562.333 295 598.333 333 619 c 0
 379 643.667 433 656 495 656 c 0
 551 656 603.167 632.667 651.5 586 c 0
 699.833 539.333 724 488 724 432 c 0
 724 357.333 685 268 607 164 c 0
 525 54.6667 448 -3.46945e-18 376 0 c 0
 347.333 0 317.333 27.3333 286 82 c 1
 384 210 l 1
 424 176.667 459.333 160 490 160 c 0
 544 160 571 196.667 571 270 c 0
 571 325.333 552.667 377.333 516 426 c 0
 476 478.667 429.333 505 376 505 c 0
 325.333 505 266.667 474 200 412 c 1
 200 186 l 2
EndSplineSet
EndChar
StartChar: formen
Encoding: 9 77833
Width: 768
Flags: HW
Fore
200 186 m 1
 518 191 l 1
 553.333 203.667 571 230 571 270 c 0
 571 324.667 552.333 376.333 515 425 c 0
 475 477.667 428.667 504 376 504 c 0
 322.667 504 264 473.333 200 412 c 1
 200 186 l 1
200 511 m 1
 252 563.667 296.333 599.667 333 619 c 0
 378.333 643 432.333 655 495 655 c 0
 551 655 603.167 631.833 651.5 585.5 c 0
 699.833 539.167 724 488 724 432 c 0
 724 375.333 685 295 607 191 c 1
 663.667 191 702.667 197 724 209 c 1
 661.333 69.6667 608.667 6.93889e-18 566 0 c 2
 6 0 l 1
 40 134.667 57 272.667 57 414 c 2
 57 1048 l 2
 57 1093.33 38 1130.67 0 1160 c 1
 30.6667 1195.33 73.6667 1246.33 129 1313 c 1
 165 1284.33 188.667 1223.33 200 1130 c 1
 200 511 l 1
EndSplineSet
EndChar
StartChar: harma_(aha)
Encoding: 10 77834
Width: 768
Flags: HW
Fore
523 143 m 1
 473 93 428.667 57.6667 390 37 c 0
 343.333 12.3333 289.667 8.67362e-19 229 0 c 0
 172.333 0 120 23.1667 72 69.5 c 0
 24 115.833 0 167.333 0 224 c 0
 0 300.667 38.6667 390.333 116 493 c 0
 197.333 601.667 274.667 656 348 656 c 0
 376.667 656 406.667 628.667 438 574 c 1
 340 446 l 1
 300 478.667 264.333 495 233 495 c 0
 179 495 152 458.667 152 386 c 0
 152 331.333 170.667 279.333 208 230 c 0
 248.667 177.333 295.333 151 348 151 c 0
 398.667 151 457 181.333 523 242 c 1
 523 1126 l 1
 620.333 1239.33 683.333 1301.67 712 1313 c 1
 680.667 1177.67 665 1039.67 665 899 c 2
 665 265 l 2
 665 219.667 684.333 182 723 152 c 1
 692.333 117.333 649 66.6667 593 0 c 1
 557 28.6667 533.667 69 523 121 c 1
 523 143 l 1
EndSplineSet
EndChar
StartChar: hwesta
Encoding: 11 77835
Width: 768
Flags: HW
Fore
524 495 m 1
 207 491 l 1
 171 478.333 153 443.333 153 386 c 0
 153 331.333 171.667 279.333 209 230 c 0
 249.667 177.333 296.333 151 349 151 c 0
 399.667 151 458 181.667 524 243 c 1
 524 495 l 1
523 143 m 1
 429 47.6667 331 -3.46945e-18 229 0 c 0
 172.333 0 120 23.1667 72 69.5 c 0
 24 115.833 0 167.333 0 224 c 0
 0 298 38.6667 387 116 491 c 1
 83.3333 491 63.6667 490.667 57 490 c 0
 34.3333 488 15.3333 482.333 0 473 c 1
 62 611 114 680 156 680 c 2
 524 682 l 1
 524 1126 l 1
 621.333 1239.33 684.333 1301.67 713 1313 c 1
 682.333 1177.67 667 1039.67 667 899 c 2
 667 248 l 1
 671.667 209.333 690.333 177.333 723 152 c 1
 692.333 117.333 649 66.6667 593 0 c 1
 546.333 37.3333 523 71.3333 523 102 c 2
 523 143 l 1
EndSplineSet
EndChar
StartChar: anto
Encoding: 12 77836
Width: 1260
Flags: HW
Fore
200 511 m 1
 250.667 562.333 295 598.333 333 619 c 0
 379 643.667 433 656 495 656 c 0
 581 656 648 612.667 696 526 c 1
 744.667 572.667 787 605.333 823 624 c 0
 867 645.333 918.333 656 977 656 c 0
 1033.67 656 1086 632.833 1134 586.5 c 0
 1182 540.167 1206 488.667 1206 432 c 0
 1206 358 1167 268.667 1089 164 c 0
 1007.67 54.6667 930.667 -3.46945e-18 858 0 c 0
 829.333 0 799.333 27.3333 768 82 c 1
 866 210 l 1
 906 176.667 941.667 160 973 160 c 0
 1027 160 1054 196.667 1054 270 c 0
 1054 324.667 1035.33 376.667 998 426 c 0
 957.333 478.667 910.667 505 858 505 c 0
 820 505 775 485.667 723 447 c 1
 723.667 440.333 724 433.667 724 427 c 0
 724 355.667 685 268 607 164 c 0
 525 54.6667 448 -3.46945e-18 376 0 c 0
 347.333 0 317.333 27.3333 286 82 c 1
 384 210 l 1
 424 176.667 459.333 160 490 160 c 0
 544 160 571 196.667 571 270 c 0
 571 325.333 552.667 377.333 516 426 c 0
 476 478.667 429.333 505 376 505 c 0
 325.333 505 266.667 474 200 412 c 1
 200 186 l 2
 200 134 182 91 146 57 c 0
 123.333 35.6667 78.3333 16.6667 11 0 c 1
 41.6667 134.667 57 272.667 57 414 c 2
 57 1048 l 2
 57 1093.33 38 1130.67 0 1160 c 1
 30.6667 1195.33 73.6667 1246.33 129 1313 c 1
 165 1284.33 188.667 1223.33 200 1130 c 1
 200 511 l 1
EndSplineSet
EndChar
StartChar: ampa
Encoding: 13 77837
Width: 1260
Flags: HW
Fore
57 414 m 2
 57 1048 l 2
 57 1093.33 38 1130.67 0 1160 c 1
 30.6667 1195.33 73.6667 1246.33 129 1313 c 1
 165 1284.33 188.667 1223.33 200 1130 c 1
 200 511 l 1
 294.667 607.667 392.333 656 493 656 c 0
 580.333 656 648 612.667 696 526 c 1
 786 612.667 879 656 975 656 c 0
 1032.33 656 1085.17 633 1133.5 587 c 0
 1181.83 541 1206 489.333 1206 432 c 0
 1206 366 1173.33 285.333 1108 190 c 1
 1138 190 1172.33 198.333 1211 215 c 1
 1212.33 213 1213 210.333 1213 207 c 0
 1213 174.333 1168.33 105.333 1079 0 c 1
 0 0 l 1
 38 73.3333 57 211.333 57 414 c 2
200 186 m 1
 551 190 l 1
 564.333 209.333 571 236 571 270 c 0
 571 325.333 552.667 377.333 516 426 c 0
 476 478.667 429.333 505 376 505 c 0
 325.333 505 266.667 474 200 412 c 1
 200 186 l 1
1054 270 m 0
 1054 324.667 1035.33 376.667 998 426 c 0
 957.333 478.667 910.667 505 858 505 c 0
 820 505 775 485.667 723 447 c 1
 723.667 441 724 434.667 724 428 c 0
 724 364.667 691.333 285.333 626 190 c 1
 1033 190 l 1
 1047 209.333 1054 236 1054 270 c 0
EndSplineSet
EndChar
StartChar: anca
Encoding: 14 77838
Width: 1260
Flags: HW
Fore
1011 144 m 1
 905.667 48 807.333 0 716 0 c 0
 628.667 0 561 44.3333 513 133 c 1
 463.667 85 420.667 51.6667 384 33 c 0
 340.667 11 289 0 229 0 c 0
 172.333 0 120 23.1667 72 69.5 c 0
 24 115.833 0 167.333 0 224 c 0
 0 300.667 38.6667 390.333 116 493 c 0
 197.333 601.667 274.667 656 348 656 c 0
 376.667 656 406.667 628.667 438 574 c 1
 340 446 l 1
 300 478.667 264.333 495 233 495 c 0
 179 495 152 458.667 152 386 c 0
 152 331.333 170.667 279.333 208 230 c 0
 248.667 177.333 295.333 151 348 151 c 0
 386.667 151 433.333 172 488 214 c 1
 488 224 l 2
 488 300.667 526.667 390.667 604 494 c 0
 684.667 602 761.667 656 835 656 c 0
 863.667 656 894 628.667 926 574 c 1
 827 446 l 1
 787.667 478.667 752.333 495 721 495 c 0
 667 495 640 458.667 640 386 c 0
 640 331.333 658.333 279.333 695 230 c 0
 735 177.333 781.667 151 835 151 c 0
 889 151 948 181.667 1012 243 c 1
 1012 249.667 1012 251.667 1012 249 c 0
 1012 311.667 1012 374 1012 436 c 0
 1011.33 890 1011 1120 1011 1126 c 1
 1109.67 1240 1172.67 1302.33 1200 1313 c 1
 1169.33 1177.67 1154 1039.67 1154 899 c 2
 1154 265 l 2
 1154 219.667 1173 182 1211 152 c 1
 1140.33 71.3333 1097 20.6667 1081 0 c 1
 1034.33 37.3333 1011 71.3333 1011 102 c 2
 1011 144 l 1
EndSplineSet
EndChar
StartChar: unque
Encoding: 15 77839
Width: 1260
Flags: HW
Fore
1011 1126 m 1
 1108.33 1239.33 1171.33 1301.67 1200 1313 c 1
 1169.33 1177.67 1154 1039.67 1154 899 c 2
 1154 265 l 2
 1154 219.667 1173 182 1211 152 c 1
 1180.33 117.333 1137.33 66.6667 1082 0 c 1
 1034.67 38 1011 78.3333 1011 121 c 2
 1011 144 l 1
 961.667 93.3333 917.333 57.6667 878 37 c 0
 831.333 12.3333 777.333 8.67362e-19 716 0 c 0
 628.667 0 561 44.3333 513 133 c 1
 463.667 85 420.667 51.6667 384 33 c 0
 340.667 11 289 0 229 0 c 0
 172.333 0 120 23.1667 72 69.5 c 0
 24 115.833 0 167.333 0 224 c 0
 0 298 38.6667 387 116 491 c 1
 58.6667 491 20 485 0 473 c 1
 61.3333 611 113.333 680 156 680 c 2
 1011 682 l 1
 1011 1126 l 1
687 488 m 1
 655.667 474 640 440 640 386 c 0
 640 331.333 658.333 279.333 695 230 c 0
 735 177.333 781.667 151 835 151 c 0
 889 151 948 181.667 1012 243 c 1
 1012 489 l 1
 687 488 l 1
602 489 m 1
 206 491 l 1
 170 478.333 152 443.333 152 386 c 0
 152 331.333 170.667 279.333 208 230 c 0
 248.667 177.333 295.333 151 348 151 c 0
 386.667 151 433.333 172 488 214 c 1
 488 294 526 385.667 602 489 c 1
EndSplineSet
EndChar
StartChar: nuumen
Encoding: 16 77840
Width: 1260
Flags: HW
Fore
200 511 m 1
 250.667 562.333 295 598.333 333 619 c 0
 379 643.667 433 656 495 656 c 0
 581 656 648 612.667 696 526 c 1
 744.667 572.667 787 605.333 823 624 c 0
 867 645.333 918.333 656 977 656 c 0
 1033.67 656 1086 632.833 1134 586.5 c 0
 1182 540.167 1206 488.667 1206 432 c 0
 1206 358 1167 268.667 1089 164 c 0
 1007.67 54.6667 930.667 -3.46945e-18 858 0 c 0
 829.333 0 799.333 27.3333 768 82 c 1
 866 210 l 1
 906 176.667 941.667 160 973 160 c 0
 1027 160 1054 196.667 1054 270 c 0
 1054 324.667 1035.33 376.667 998 426 c 0
 957.333 478.667 910.667 505 858 505 c 0
 820 505 775 485.667 723 447 c 1
 723.667 440.333 724 433.667 724 427 c 0
 724 355.667 685 268 607 164 c 0
 525 54.6667 448 -3.46945e-18 376 0 c 0
 347.333 0 317.333 27.3333 286 82 c 1
 384 210 l 1
 424 176.667 459.333 160 490 160 c 0
 544 160 571 196.667 571 270 c 0
 571 325.333 552.667 377.333 516 426 c 0
 476 478.667 429.333 505 376 505 c 0
 325.333 505 266.667 474 200 412 c 1
 200 186 l 2
 200 134 182 91 146 57 c 0
 123.333 35.6667 78.3333 16.6667 11 0 c 1
 41.6667 130 57 240.667 57 332 c 2
 57 410 l 2
 57 455.333 38 492.667 0 522 c 1
 30.6667 557.333 73.6667 608.333 129 675 c 1
 165 646.333 188.667 591.667 200 511 c 1
EndSplineSet
EndChar
StartChar: malta
Encoding: 17 77841
Width: 1260
Flags: HW
Fore
626 190 m 1
 1033 190 l 1
 1047 209.333 1054 236 1054 270 c 0
 1054 324.667 1035.33 376.667 998 426 c 0
 957.333 478.667 910.667 505 858 505 c 0
 820 505 775 485.667 723 447 c 1
 723.667 441 724 434.667 724 428 c 0
 724 364.667 691.333 285.333 626 190 c 1
200 511 m 1
 294.667 607.667 392.333 656 493 656 c 0
 580.333 656 648 612.667 696 526 c 1
 786 612.667 879 656 975 656 c 0
 1032.33 656 1085.17 633 1133.5 587 c 0
 1181.83 541 1206 489.333 1206 432 c 0
 1206 366 1173.33 285.333 1108 190 c 1
 1138 190 1172.33 198.333 1211 215 c 1
 1212.33 213 1213 210.333 1213 207 c 0
 1213 174.333 1168.33 105.333 1079 0 c 1
 0 0 l 1
 38 76 57 186.667 57 332 c 2
 57 410 l 2
 57 455.333 38 492.667 0 522 c 1
 30.6667 557.333 73.6667 608.333 129 675 c 1
 165 646.333 188.667 591.667 200 511 c 1
376 505 m 0
 325.333 505 266.667 474 200 412 c 1
 200 186 l 1
 551 190 l 1
 564.333 209.333 571 236 571 270 c 0
 571 325.333 552.667 377.333 516 426 c 0
 476 478.667 429.333 505 376 505 c 0
EndSplineSet
EndChar
StartChar: noldo_(ngoldo)
Encoding: 18 77842
Width: 1260
Flags: HW
Fore
835 151 m 0
 887.667 151 946.333 181.333 1011 242 c 1
 1011 488 l 2
 1011 555.333 1073.67 617.667 1199 675 c 1
 1168.33 544.333 1153 433.667 1153 343 c 2
 1153 265 l 2
 1153 219.667 1172 182 1210 152 c 1
 1180 117.333 1137 66.6667 1081 0 c 1
 1034.33 37.3333 1011 71.3333 1011 102 c 2
 1011 143 l 1
 960.333 92.3333 916 57 878 37 c 0
 831.333 12.3333 777.333 8.67362e-19 716 0 c 0
 628.667 0 561 44.3333 513 133 c 1
 463.667 85 420.667 51.6667 384 33 c 0
 340.667 11 289 0 229 0 c 0
 172.333 0 120 23.1667 72 69.5 c 0
 24 115.833 0 167.333 0 224 c 0
 0 300.667 38.6667 390.333 116 493 c 0
 197.333 601.667 274.667 656 348 656 c 0
 376.667 656 406.667 628.667 438 574 c 1
 340 446 l 1
 300 478.667 264.333 495 233 495 c 0
 179 495 152 458.667 152 386 c 0
 152 331.333 170.667 279.333 208 230 c 0
 248.667 177.333 295.333 151 348 151 c 0
 386.667 151 433.333 172 488 214 c 1
 488 224 l 2
 488 300.667 526.667 390.667 604 494 c 0
 684.667 602 761.667 656 835 656 c 0
 863.667 656 894 628.667 926 574 c 1
 827 446 l 1
 787.667 478.667 752.333 495 721 495 c 0
 667 495 640 458.667 640 386 c 0
 640 331.333 658.333 279.333 695 230 c 0
 735 177.333 781.667 151 835 151 c 0
EndSplineSet
EndChar
StartChar: nwalme_(ngwalme)
Encoding: 19 77843
Width: 1260
Flags: HW
Fore
1011 489 m 1
 687 488 l 1
 655.667 474 640 440 640 386 c 0
 640 331.333 658.333 279.333 695 230 c 0
 735 177.333 781.667 151 835 151 c 0
 887.667 151 946.333 181.333 1011 242 c 1
 1011 489 l 1
716 0 m 0
 628.667 0 561 44.3333 513 133 c 1
 463.667 85 420.667 51.6667 384 33 c 0
 340.667 11 289 0 229 0 c 0
 172.333 0 120 23.1667 72 69.5 c 0
 24 115.833 0 167.333 0 224 c 0
 0 298 38.6667 387 116 491 c 1
 58.6667 491 20 485 0 473 c 1
 61.3333 611 113.333 680 156 680 c 2
 1260 682 l 1
 1244 638 1213.67 574.667 1169 492 c 1
 1158.33 432.667 1153 383 1153 343 c 2
 1153 265 l 2
 1153 219.667 1172 182 1210 152 c 1
 1180 117.333 1137 66.6667 1081 0 c 1
 1034.33 37.3333 1011 71.3333 1011 102 c 2
 1011 143 l 1
 960.333 92.3333 916 57 878 37 c 0
 831.333 12.3333 777.333 8.67362e-19 716 0 c 0
602 489 m 1
 206 491 l 1
 170 478.333 152 443.333 152 386 c 0
 152 331.333 170.667 279.333 208 230 c 0
 248.667 177.333 295.333 151 348 151 c 0
 386.667 151 433.333 172 488 214 c 1
 488 224 l 2
 488 297.333 526 385.667 602 489 c 1
EndSplineSet
EndChar
StartChar: oore
Encoding: 20 77844
Width: 768
Flags: HW
Fore
200 186 m 2
 200 134 182 91 146 57 c 0
 123.333 35.6667 78.3333 16.6667 11 0 c 1
 41.6667 130 57 240.667 57 332 c 2
 57 410 l 2
 57 455.333 38 492.667 0 522 c 1
 30.6667 557.333 73.6667 608.333 129 675 c 1
 165 646.333 188.667 591.667 200 511 c 1
 250.667 562.333 295 598.333 333 619 c 0
 379 643.667 433 656 495 656 c 0
 551 656 603.167 632.667 651.5 586 c 0
 699.833 539.333 724 488 724 432 c 0
 724 357.333 685 268 607 164 c 0
 525 54.6667 448 -3.46945e-18 376 0 c 0
 347.333 0 317.333 27.3333 286 82 c 1
 384 210 l 1
 424 176.667 459.333 160 490 160 c 0
 544 160 571 196.667 571 270 c 0
 571 325.333 552.667 377.333 516 426 c 0
 476 478.667 429.333 505 376 505 c 0
 325.333 505 266.667 474 200 412 c 1
 200 186 l 2
EndSplineSet
EndChar
StartChar: vala
Encoding: 21 77845
Width: 768
Flags: HW
Fore
200 186 m 1
 512 191 l 1
 548 203.667 566 230 566 270 c 0
 566 324 547.333 375.667 510 425 c 0
 469.333 477.667 422.667 504 370 504 c 0
 320.667 504 264 475 200 417 c 1
 200 186 l 1
195 512 m 1
 245.667 563.333 289.667 599 327 619 c 0
 373 643 427 655 489 655 c 0
 545.667 655 598 632 646 586 c 0
 694 540 718 488.667 718 432 c 0
 718 375.333 679.333 295 602 191 c 1
 659.333 191 698 197 718 209 c 1
 655.333 69.6667 602.667 6.93889e-18 560 0 c 2
 0 0 l 1
 38 130 57 240.667 57 332 c 2
 57 410 l 2
 57 455.333 38 492.667 0 522 c 1
 30.6667 557.333 73.6667 608.333 129 675 c 1
 153.667 655.667 175.667 601.333 195 512 c 1
EndSplineSet
EndChar
StartChar: anna
Encoding: 22 77846
Width: 768
Flags: HW
Fore
523 143 m 1
 429 47.6667 331 -3.46945e-18 229 0 c 0
 172.333 0 120 23.1667 72 69.5 c 0
 24 115.833 0 167.333 0 224 c 0
 0 300.667 38.6667 390.333 116 493 c 0
 197.333 601.667 274.667 656 348 656 c 0
 376.667 656 406.667 628.667 438 574 c 1
 340 446 l 1
 300 478.667 264.333 495 233 495 c 0
 179 495 152 458.667 152 386 c 0
 152 331.333 170.667 279.333 208 230 c 0
 248.667 177.333 295.333 151 348 151 c 0
 399.333 151 457.667 181.667 523 243 c 1
 523 488 l 2
 523 555.333 586 617.667 712 675 c 1
 681.333 543 666 432.333 666 343 c 2
 666 265 l 2
 666 219.667 685 182 723 152 c 1
 692.333 117.333 649 66.6667 593 0 c 1
 546.333 37.3333 523 71.3333 523 102 c 2
 523 143 l 1
EndSplineSet
EndChar
StartChar: vilya_(wilya)
Encoding: 23 77847
Width: 768
Flags: HW
Fore
523 495 m 1
 206 491 l 1
 170 478.333 152 443.333 152 386 c 0
 152 331.333 170.667 279.333 208 230 c 0
 248.667 177.333 295.333 151 348 151 c 0
 399.333 151 457.667 181.667 523 243 c 1
 523 495 l 1
523 143 m 1
 429 47.6667 331 -3.46945e-18 229 0 c 0
 172.333 0 120 23.1667 72 69.5 c 0
 24 115.833 0 167.333 0 224 c 0
 0 298 38.6667 387 116 491 c 1
 83.3333 491 63.6667 490.667 57 490 c 0
 34.3333 488 15.3333 482.333 0 473 c 1
 61.3333 611 113.333 680 156 680 c 2
 759 682 l 1
 747.667 652 724.333 601.333 689 530 c 1
 673.667 446 666 383.667 666 343 c 2
 666 265 l 2
 666 219.667 685 182 723 152 c 1
 692.333 117.333 649 66.6667 593 0 c 1
 546.333 37.3333 523 71.3333 523 102 c 2
 523 143 l 1
EndSplineSet
EndChar
StartChar: roomen
Encoding: 24 77848
Width: 830
Flags: HW
Fore
705 334 m 0
 689.667 309.333 611 208.667 469 32 c 0
 351.667 -114 287 -214 275 -268 c 0
 273 -277.333 272 -287 272 -297 c 0
 272 -333 282.667 -364.333 304 -391 c 0
 328.667 -421.667 362 -437 404 -437 c 0
 422 -437 451 -428 491 -410 c 1
 471 -444.667 445 -487 413 -537 c 1
 374.333 -584.333 338 -608 304 -608 c 0
 248.667 -608 206.333 -587.333 177 -546 c 0
 153.667 -514 142 -477 142 -435 c 0
 142 -375 222 -228.333 382 5 c 1
 382 55 349.667 142 285 266 c 0
 215.667 398 160 464 118 464 c 0
 106 464 76.6667 448.333 30 417 c 1
 100 569 159.667 645 209 645 c 0
 282.333 645 389.667 495 531 195 c 1
 557.667 229.667 584.333 264.667 611 300 c 1
 639.667 342 654 381.667 654 419 c 0
 654 429 653 438.667 651 448 c 1
 636.333 464 616.667 472 592 472 c 0
 555.333 472 507.667 453.333 449 416 c 1
 490.333 472 551 542.333 631 627 c 1
 653 643 674.667 651 696 651 c 0
 720 651 743.333 641 766 621 c 0
 790 599 802 572.667 802 542 c 0
 802 512 790 475.333 766 432 c 1
 746 399.333 725.667 366.667 705 334 c 0
EndSplineSet
EndChar
StartChar: arda
Encoding: 25 77849
Width: 830
Flags: HW
Fore
327 178 m 1
 237 64.6667 192 0 192 -16 c 0
 192 -42 202.333 -61.3333 223 -74 c 1
 101 -239 l 1
 70.3333 -205 55 -173 55 -143 c 0
 55 -123 61.3333 -101.667 74 -79 c 0
 92.6667 -45.6667 170 55 306 223 c 1
 228.667 383.667 166 464 118 464 c 0
 106 464 76.6667 448.333 30 417 c 1
 100 569 159.667 645 209 645 c 0
 282.333 645 389.667 495 531 195 c 1
 557.667 229.667 584.333 264.667 611 300 c 1
 639.667 342 654 381.667 654 419 c 0
 654 429 653 438.667 651 448 c 1
 636.333 464 616.667 472 592 472 c 0
 555.333 472 507.667 453.333 449 416 c 1
 490.333 472 551 542.333 631 627 c 1
 653 643 674.667 651 696 651 c 0
 720 651 743.333 641 766 621 c 0
 790 599 802 572.667 802 542 c 0
 802 512 790 475.333 766 432 c 1
 746 399.333 725.667 366.667 705 334 c 0
 689.667 309.333 611 208.667 469 32 c 0
 351.667 -114 287 -214 275 -268 c 0
 273 -277.333 272 -287 272 -297 c 0
 272 -333 282.667 -364.333 304 -391 c 0
 328.667 -421.667 362 -437 404 -437 c 0
 422 -437 451 -428 491 -410 c 1
 471 -444.667 445 -487 413 -537 c 1
 374.333 -584.333 338 -608 304 -608 c 0
 248.667 -608 206.333 -587.333 177 -546 c 0
 153.667 -514 142 -477 142 -435 c 0
 142 -375 222 -228.333 382 5 c 1
 382 37 363.667 94.6667 327 178 c 1
EndSplineSet
EndChar
StartChar: lambe
Encoding: 26 77850
Width: 1209
Flags: HW
Fore
1179 653 m 1
 1151.67 513 1033.33 443 824 443 c 0
 770 443 696.167 448.167 602.5 458.5 c 0
 508.833 468.833 447.667 474 419 474 c 0
 360.333 474 298.333 414 233 294 c 0
 173 184.667 143 97 143 31 c 0
 143 -75 187.667 -168 277 -248 c 0
 363 -325.333 459.667 -364 567 -364 c 0
 631.667 -364 704.667 -348 786 -316 c 0
 884 -276.667 933 -231 933 -179 c 0
 933 -153 914 -118 876 -74 c 1
 990 64 l 1
 1008 64 1026.83 49.8333 1046.5 21.5 c 0
 1066.17 -6.83333 1076 -30.6667 1076 -50 c 0
 1076 -120 1029 -206 935 -308 c 0
 851 -399.333 779.667 -459.333 721 -488 c 0
 655 -520 562.333 -536 443 -536 c 0
 339 -536 239.667 -493.333 145 -408 c 0
 48.3333 -320 3.46945e-18 -224.667 0 -122 c 0
 0 -36 36.6667 70.6667 110 198 c 0
 168.667 300 236.667 393.667 314 479 c 1
 305.333 489 285.333 494 254 494 c 0
 214.667 494 169.833 487 119.5 473 c 0
 69.1667 459 36.6667 443.667 22 427 c 1
 55.3333 585.667 193 665 435 665 c 0
 495.667 665 589.5 659.167 716.5 647.5 c 0
 843.5 635.833 935 630 991 630 c 0
 1068.33 630 1131 637.667 1179 653 c 1
EndSplineSet
EndChar
StartChar: alda
Encoding: 27 77851
Width: 1188
Flags: HW
Fore
112 88 m 0
 112 42.6667 130.333 5.66667 167 -23 c 0
 201.667 -50.3333 242 -62.6667 288 -60 c 2
 626 -41 l 2
 759.333 -33.6667 826 -105 826 -255 c 0
 826 -313 773.333 -342 668 -342 c 0
 544.667 -342 457 -330.667 405 -308 c 0
 342.333 -280.667 304 -229.667 290 -155 c 1
 202.667 -251.667 159 -316.667 159 -350 c 0
 159 -392.667 197.667 -429.667 275 -461 c 0
 337.667 -486.333 409.333 -499 490 -499 c 0
 517.333 -499 559.167 -497.167 615.5 -493.5 c 0
 671.833 -489.833 715 -488 745 -488 c 0
 767.667 -488 813.833 -437 883.5 -335 c 0
 953.167 -233 988 -165 988 -131 c 0
 988 -23 944.333 51 857 91 c 0
 803.667 115 740.333 127 667 127 c 0
 633.667 127 586.667 123.833 526 117.5 c 0
 465.333 111.167 422.667 108 398 108 c 0
 362.667 108 333.333 112.333 310 121 c 0
 268.667 137 248 171.333 248 224 c 0
 248 276.667 265.333 331.5 300 388.5 c 0
 334.667 445.5 367 474 397 474 c 0
 425.667 474 487.333 468.667 582 458 c 0
 676.667 447.333 751 442 805 442 c 0
 1011.67 442 1129.33 512.333 1158 653 c 1
 1096 634.333 1022 625 936 625 c 0
 870.667 625 772.667 632.333 642 647 c 0
 511.333 661.667 418 669 362 669 c 0
 154 669 33.3333 588.333 0 427 c 1
 12.6667 441 45 455.833 97 471.5 c 0
 149 487.167 194.667 495 234 495 c 0
 263.333 495 283 489.667 293 479 c 1
 251.667 427 213 365 177 293 c 0
 133.667 206.333 112 138 112 88 c 0
EndSplineSet
EndChar
StartChar: silme
Encoding: 28 77852
Width: 700
Flags: HW
Fore
577 184 m 1
 550.333 152 510.333 103.667 457 39 c 0
 436.333 13 387.667 0 311 0 c 0
 231.667 0 166.333 23 115 69 c 0
 58.3333 119.667 30 181 30 253 c 0
 30 333 63.3333 419.333 130 512 c 1
 189.333 590 248.333 667.667 307 745 c 1
 380.333 851.667 417 937 417 1001 c 0
 417 1010.33 414.667 1023.33 410 1040 c 0
 405.333 1056.67 403 1068.67 403 1076 c 0
 403 1101.33 440.667 1149 516 1219 c 1
 566.667 1207 592 1175.33 592 1124 c 0
 592 1070 522.167 949.833 382.5 763.5 c 0
 242.833 577.167 173 454.333 173 395 c 0
 173 336.333 196.333 284.333 243 239 c 0
 289.667 193.667 342.333 171 401 171 c 0
 418.333 171 439.333 177.333 464 190 c 0
 492 204 506 218.333 506 233 c 0
 506 261 494.333 290.667 471 322 c 0
 445.667 355.333 419.333 372.667 392 374 c 1
 472 480 518 533 530 533 c 0
 565.333 533 593.667 513.667 615 475 c 0
 632.333 445 641 411 641 373 c 0
 641 307.667 619.667 244.667 577 184 c 1
EndSplineSet
EndChar
StartChar: silme_nuquerna
Encoding: 29 77853
Width: 768
Flags: HW
Fore
30 284 m 0
 30 364 51 434.333 93 495 c 1
 119.667 527 159.667 575.333 213 640 c 0
 233.667 666 282.333 679 359 679 c 0
 443 679 510.833 653.833 562.5 603.5 c 0
 614.167 553.167 640 486.333 640 403 c 0
 640 339 606.333 260.333 539 167 c 1
 497 112.333 435 29.3333 353 -82 c 0
 285.667 -175.333 252 -255.333 252 -322 c 0
 252 -331.333 254.5 -344.5 259.5 -361.5 c 0
 264.5 -378.5 267 -390.333 267 -397 c 0
 267 -422.333 229.333 -470 154 -540 c 1
 103.333 -528 78 -496.333 78 -445 c 0
 78 -391 147.833 -270.833 287.5 -84.5 c 0
 427.167 101.833 497 224.667 497 284 c 0
 497 343.333 473.833 395.5 427.5 440.5 c 0
 381.167 485.5 328 508 268 508 c 0
 250.667 508 229.667 501.667 205 489 c 0
 177 475 163 460.667 163 446 c 0
 163 419.333 175.333 390 200 358 c 0
 226 324 251.667 306.333 277 305 c 1
 197.667 199 152 146 140 146 c 0
 109.333 146 82.6667 161.667 60 193 c 0
 40 221.667 30 252 30 284 c 0
EndSplineSet
EndChar
StartChar: aare_(aaze,_esse)
Encoding: 30 77854
Width: 768
Flags: HW
Fore
192 22 m 1
 84 65.3333 30 150 30 276 c 0
 30 337.333 67 421.333 141 528 c 1
 199.667 605.333 258.333 682.667 317 760 c 1
 384.333 853.333 418 933.333 418 1000 c 0
 418 1009.33 415.5 1022.5 410.5 1039.5 c 0
 405.5 1056.5 403 1068.67 403 1076 c 0
 403 1101.33 440.667 1149 516 1219 c 1
 566.667 1207 592 1175.33 592 1124 c 0
 592 1062.67 522.333 942.667 383 764 c 0
 310.333 670.667 266 611.667 250 587 c 0
 200.667 510.333 176 443 176 385 c 0
 176 327.667 199.333 277.833 246 235.5 c 0
 292.667 193.167 340.333 172 389 172 c 0
 413.667 172 437.667 177.333 461 188 c 0
 491.667 202 507 217 507 233 c 0
 507 259.667 494.5 289.333 469.5 322 c 0
 444.5 354.667 419 372 393 374 c 1
 472.333 480 518 533 530 533 c 0
 560.667 533 587.333 517.333 610 486 c 0
 630 457.333 640 427 640 395 c 0
 640 315 619 244.667 577 184 c 1
 550.333 152 510.333 103.667 457 39 c 0
 436.333 13 387.667 0 311 0 c 0
 289 0 267.667 2 247 6 c 1
 197.667 -70 173 -134.333 173 -187 c 0
 173 -242.333 197.667 -292.333 247 -337 c 0
 293 -379 340.333 -400 389 -400 c 0
 413.667 -400 437.667 -394.667 461 -384 c 0
 491.667 -370 507 -355 507 -339 c 0
 507 -312.333 494.5 -282.667 469.5 -250 c 0
 444.5 -217.333 419 -200 393 -198 c 1
 472.333 -92 518 -39 530 -39 c 0
 560.667 -39 587.333 -54.6667 610 -86 c 0
 630 -114.667 640 -145 640 -177 c 0
 640 -257 619 -327.333 577 -388 c 1
 550.333 -420 510.333 -468.333 457 -533 c 0
 435 -560.333 396 -574 340 -574 c 0
 243.333 -574 168.333 -550.333 115 -503 c 0
 58.3333 -452.333 30 -392.333 30 -323 c 0
 30 -233.667 84 -118.667 192 22 c 1
EndSplineSet
EndChar
StartChar: aare_nuquerna_(aaze_n.,_esse_n.)
Encoding: 31 77855
Width: 768
Flags: HW
Fore
497 281 m 0
 497 340.333 473.667 392.333 427 437 c 0
 380.333 481.667 327.333 504 268 504 c 0
 250.667 504 229.667 498 205 486 c 0
 177 472 163 457.333 163 442 c 0
 163 415.333 175.5 385.667 200.5 353 c 0
 225.5 320.333 251 303.333 277 302 c 1
 197.667 195.333 152 142 140 142 c 0
 109.333 142 83 158 61 190 c 0
 40.3333 218.667 30 249 30 281 c 0
 30 365.667 51 435.667 93 491 c 1
 119.667 523 159.667 571.667 213 637 c 0
 235 664.333 278.667 678 344 678 c 0
 419.333 678 484.667 657.333 540 616 c 0
 606.667 566 640 494 640 400 c 0
 640 368.667 600.667 297 522 185 c 1
 614.667 167 661 103 661 -7 c 0
 661 -145.667 613.667 -274 519 -392 c 0
 418.333 -517.333 300.333 -580 165 -580 c 0
 145.667 -580 122.333 -570.667 95 -552 c 0
 65.6667 -532 51 -513 51 -495 c 1
 189 -380 l 1
 223.667 -418.667 258.667 -438 294 -438 c 0
 352.667 -438 402 -410.333 442 -355 c 0
 478.667 -303.667 497 -245 497 -179 c 0
 497 -120.333 481 -73 449 -37 c 0
 413 4.33333 361.667 23.3333 295 20 c 1
 429.667 136 497 223 497 281 c 0
EndSplineSet
EndChar
StartChar: hyarmen
Encoding: 32 77856
Width: 896
Flags: HW
Fore
145 190 m 1
 358 642 l 1
 274 880.667 227.333 1000 218 1000 c 0
 204.667 1000 170.667 981 116 943 c 1
 176 1017 240 1093 308 1171 c 1
 311.333 1172.33 315 1173 319 1173 c 0
 330.333 1173 343.167 1168 357.5 1158 c 0
 371.833 1148 381 1138 385 1128 c 2
 744 190 l 2
 744.667 188 746.667 187 750 187 c 0
 763.333 187 790.667 202.333 832 233 c 1
 790.667 173.667 758.667 129.333 736 100 c 0
 686 34.6667 652 -0.666667 634 -6 c 1
 602.667 -6 583.667 3.66667 577 23 c 2
 384 566 l 1
 149 40 l 2
 135 9.33333 114.667 -6 88 -6 c 0
 76 -6 46.6667 9 0 39 c 1
 89 248 l 1
 120.333 203.333 139 184 145 190 c 1
EndSplineSet
EndChar
StartChar: hwesta_sindarinwa
Encoding: 33 77857
Width: 768
Flags: HW
Fore
523 143 m 1
 473 93 428.667 57.6667 390 37 c 0
 343.333 12.3333 289.667 8.67362e-19 229 0 c 0
 172.333 0 120 23.1667 72 69.5 c 0
 24 115.833 0 167.333 0 224 c 0
 0 285.333 28 356.333 84 437 c 0
 136 513 190.667 568.333 248 603 c 0
 296 632.333 360.333 647 441 647 c 0
 471.667 647 499 639.667 523 625 c 1
 523 1126 l 1
 620.333 1239.33 683.333 1301.67 712 1313 c 1
 680.667 1177.67 665 1039.67 665 899 c 2
 665 265 l 2
 665 250.333 672 227.333 686 196 c 0
 700.667 162 713 147.333 723 152 c 0
 744.333 162 769.333 167 798 167 c 0
 813.333 167 837.833 165 871.5 161 c 0
 905.167 157 931 155 949 155 c 0
 980.333 155 1009 159.667 1035 169 c 1
 1031.67 149.667 1013.67 117.667 981 73 c 0
 947.667 26.3333 922.667 1.33333 906 -2 c 0
 901.333 -2.66667 896 -3 890 -3 c 0
 878.667 -3 852.333 0.666667 811 8 c 0
 769.667 15.3333 734.667 19 706 19 c 0
 666 19 628.667 12.6667 594 0 c 1
 546.667 36.6667 523 77 523 121 c 2
 523 143 l 1
523 398 m 1
 481 453.333 437.667 488 393 502 c 0
 375 508 350 511 318 511 c 0
 244.667 511 196.667 498.333 174 473 c 0
 159.333 457 152 428 152 386 c 0
 152 331.333 170.667 279.333 208 230 c 0
 248.667 177.333 295.333 151 348 151 c 0
 398.667 151 457 181.333 523 242 c 1
 523 398 l 1
EndSplineSet
EndChar
StartChar: yanta
Encoding: 34 77858
Width: 821
Flags: HW
Fore
821 233 m 1
 783.667 153.667 762.333 109 757 99 c 0
 719 31.6667 686.333 -1.33333 659 0 c 0
 637 1.33333 608.667 23.3333 574 66 c 2
 405 276 l 1
 250 93 l 2
 197.333 31 145.667 0 95 0 c 0
 68.3333 0 36.6667 25.3333 0 76 c 1
 100 219 l 1
 135.333 187 167 171 195 171 c 0
 209 171 264.667 223.667 362 329 c 1
 338.667 359.667 293.667 410.333 227 481 c 1
 209.667 492.333 190.667 498 170 498 c 0
 134 498 101.667 483 73 453 c 1
 91.6667 500.333 117.333 543.667 150 583 c 0
 192 635 232.667 661 272 661 c 0
 314 661 399.667 584.167 529 430.5 c 0
 658.333 276.833 732.667 200 752 200 c 0
 764.667 200 787.667 211 821 233 c 1
EndSplineSet
EndChar
StartChar: uure
Encoding: 35 77859
Width: 720
Flags: HW
Fore
529 89 m 1
 476.333 29.6667 383 1.73472e-18 249 0 c 0
 195.667 0 140.833 26.5 84.5 79.5 c 0
 28.1667 132.5 1.73472e-18 185.333 0 238 c 0
 0 339.333 40.1667 434.833 120.5 524.5 c 0
 200.833 614.167 291.333 659 392 659 c 0
 466 659 534.333 634.667 597 586 c 0
 663 534.667 696 475 696 407 c 0
 696 366.333 674.667 310.667 632 240 c 0
 624.667 228 590.333 177.667 529 89 c 1
554 320 m 0
 554 367.333 517 407 443 439 c 0
 381.667 465 323.333 478 268 478 c 0
 226 478 198.333 476.333 185 473 c 0
 165 467.667 141.667 452.667 115 428 c 1
 115 359.333 145 302.667 205 258 c 0
 257 219.333 311 200 367 200 c 0
 406.333 200 444.667 209.667 482 229 c 0
 530 253.667 554 284 554 320 c 0
EndSplineSet
EndChar
StartChar: halla
Encoding: 36 77860
Width: 297
Flags: HW
Fore
200 186 m 2
 200 133.333 181.833 90 145.5 56 c 0
 109.167 22 64.3333 3.33333 11 0 c 1
 41.6667 134.667 57 272.667 57 414 c 2
 57 1048 l 2
 57 1093.33 38 1130.67 0 1160 c 1
 30.6667 1195.33 73.6667 1246.33 129 1313 c 1
 165 1284.33 188.667 1223.33 200 1130 c 1
 200 186 l 2
EndSplineSet
EndChar
StartChar: short_carrier
Encoding: 37 77861
Width: 410
Flags: HW
Fore
103 491 m 2
 54.3333 491 20 485 0 473 c 1
 62 610.333 114 679.333 156 680 c 2
 335 682 l 1
 335 186 l 2
 335 134 317 91 281 57 c 0
 258.333 35.6667 213.333 16.6667 146 0 c 1
 177.333 130.667 193 241.333 193 332 c 2
 193 410 l 2
 193 439.333 184 466.333 166 491 c 1
 103 491 l 2
EndSplineSet
EndChar
StartChar: long_carrier
Encoding: 38 77862
Width: 410
Flags: HW
Fore
166 491 m 1
 103 491 l 2
 54.3333 491 20 485 0 473 c 1
 62 610.333 114 679.333 156 680 c 2
 335 682 l 1
 335 -452 l 2
 335 -547.333 272 -609.333 146 -638 c 1
 177.333 -503.333 193 -365.333 193 -224 c 2
 193 410 l 2
 193 439.333 184 466.333 166 491 c 1
EndSplineSet
EndChar
StartChar: anna_sindarinwa
Encoding: 39 77863
Width: 768
Flags: HW
Fore
523 143 m 1
 429 47.6667 331 -3.46945e-18 229 0 c 0
 172.333 0 120 23.1667 72 69.5 c 0
 24 115.833 0 167.333 0 224 c 0
 0 300.667 38.6667 390.333 116 493 c 0
 197.333 601.667 274.667 656 348 656 c 0
 376.667 656 406.667 628.667 438 574 c 1
 340 446 l 1
 300 478.667 264.333 495 233 495 c 0
 179 495 152 458.667 152 386 c 0
 152 331.333 170.667 279.333 208 230 c 0
 248.667 177.333 295.333 151 348 151 c 0
 399.333 151 457.667 181.667 523 243 c 1
 523 488 l 2
 523 555.333 586 617.667 712 675 c 5
 681.333 543 666 432.333 666 343 c 2
 666 265 l 2
 666 219.667 685 182 723 152 c 1
 692.333 117.333 649 66.6667 593 0 c 1
 546.333 37.3333 523 71.3333 523 102 c 2
 523 143 l 1
EndSplineSet
EndChar
StartChar: extended_thuule
Encoding: 40 77864
Width: 768
Flags: HW
Fore
200 -452 m 2
 200 -504 182 -547.333 146 -582 c 0
 123.333 -602.667 78.3333 -621.333 11 -638 c 1
 41.6667 -503.333 57 -365.333 57 -224 c 2
 57 1048 l 2
 57 1093.33 38 1130.67 0 1160 c 1
 30.6667 1195.33 73.6667 1246.33 129 1313 c 1
 165 1284.33 188.667 1223.33 200 1130 c 1
 200 511 l 1
 250.667 562.333 295 598.333 333 619 c 0
 379 643.667 433 656 495 656 c 0
 551 656 603.167 632.667 651.5 586 c 0
 699.833 539.333 724 488 724 432 c 0
 724 357.333 685 268 607 164 c 0
 525 54.6667 448 -3.46945e-18 376 0 c 0
 347.333 0 317.333 27.3333 286 82 c 1
 384 210 l 1
 424 176.667 459.333 160 490 160 c 0
 544 160 571 196.667 571 270 c 0
 571 325.333 552.667 377.333 516 426 c 0
 476 478.667 429.333 505 376 505 c 0
 325.333 505 266.667 474 200 412 c 1
 200 -452 l 2
EndSplineSet
EndChar
StartChar: extended_formen
Encoding: 41 77865
Width: 768
Flags: HW
Fore
200 412 m 1
 200 190 l 1
 555 190 l 1
 565.667 208.667 571 235.333 571 270 c 0
 571 325.333 552.667 377.333 516 426 c 0
 476 478.667 429.333 505 376 505 c 0
 325.333 505 266.667 474 200 412 c 1
200 -452 m 2
 200 -547.333 137 -609.333 11 -638 c 1
 41.6667 -503.333 57 -365.333 57 -224 c 2
 57 1048 l 2
 57 1093.33 38 1130.67 0 1160 c 1
 30.6667 1195.33 73.6667 1246.33 129 1313 c 1
 165 1284.33 188.667 1223.33 200 1130 c 1
 200 511 l 1
 250.667 562.333 295 598.333 333 619 c 0
 379 643.667 433 656 495 656 c 0
 551 656 603.167 632.667 651.5 586 c 0
 699.833 539.333 724 488 724 432 c 0
 724 363.333 693 282.667 631 190 c 1
 651.667 190.667 682.333 199 723 215 c 1
 727 181.667 682.667 110 590 0 c 1
 200 0 l 1
 200 -452 l 2
EndSplineSet
EndChar
StartChar: extended_harma
Encoding: 42 77866
Width: 768
Flags: HW
Fore
524 1123 m 1
 565.333 1170.33 595 1203.33 613 1222 c 0
 647.667 1257.33 681 1286.33 713 1309 c 1
 682.333 1174.33 667 1036.33 667 895 c 2
 667 -373 l 2
 667 -418.333 679 -456 703 -486 c 1
 574 -638 l 1
 540.667 -585.333 524 -531 524 -475 c 2
 524 144 l 1
 474 93.3333 429.667 58 391 38 c 0
 343.667 12.6667 289.667 -8.67362e-19 229 0 c 0
 172.333 0 120 23.1667 72 69.5 c 0
 24 115.833 0 167.333 0 224 c 0
 0 300.667 38.6667 390.333 116 493 c 0
 197.333 601.667 274.667 656 348 656 c 0
 376.667 656 406.667 628.667 438 574 c 1
 340 446 l 1
 300 478.667 264.333 495 233 495 c 0
 179 495 152 458.667 152 386 c 0
 152 331.333 170.667 279.333 208 230 c 0
 248.667 177.333 295.333 151 348 151 c 0
 396.667 151 455.333 181.667 524 243 c 1
 524 1123 l 1
EndSplineSet
EndChar
StartChar: extended_hwesta
Encoding: 43 77867
Width: 768
Flags: HW
Fore
524 495 m 1
 206 491 l 1
 170 478.333 152 443.333 152 386 c 0
 152 331.333 170.667 279.333 208 230 c 0
 248.667 177.333 295.333 151 348 151 c 0
 401.333 151 460 181.667 524 243 c 1
 524 495 l 1
524 682 m 1
 524 1123 l 1
 569.333 1175 600.333 1209.67 617 1227 c 0
 662.333 1275 694.333 1302.33 713 1309 c 1
 682.333 1174.33 667 1036.33 667 895 c 2
 667 -373 l 2
 667 -418.333 679 -456 703 -486 c 1
 574 -638 l 1
 540.667 -585.333 524 -531 524 -475 c 2
 524 144 l 1
 474 93.3333 429.667 58 391 38 c 0
 343.667 12.6667 289.667 -8.67362e-19 229 0 c 0
 172.333 0 120 23.1667 72 69.5 c 0
 24 115.833 0 167.333 0 224 c 0
 0 298 38.6667 387 116 491 c 1
 83.3333 491 63.6667 490.667 57 490 c 0
 34.3333 488 15.3333 482.333 0 473 c 1
 62 611 114 680 156 680 c 2
 524 682 l 1
EndSplineSet
EndChar
StartChar: extended_anto
Encoding: 44 77868
Width: 1260
Flags: HW
Fore
57 1048 m 2
 57 1093.33 38 1130.67 0 1160 c 1
 30.6667 1195.33 73.6667 1246.33 129 1313 c 1
 165 1284.33 188.667 1223.33 200 1130 c 1
 200 511 l 1
 250.667 562.333 295 598.333 333 619 c 0
 379 643.667 433 656 495 656 c 0
 581 656 648 612.667 696 526 c 1
 744.667 572.667 787 605.333 823 624 c 0
 867 645.333 918.333 656 977 656 c 0
 1033.67 656 1086 632.833 1134 586.5 c 0
 1182 540.167 1206 488.667 1206 432 c 0
 1206 358 1167 268.667 1089 164 c 0
 1007.67 54.6667 930.667 -3.46945e-18 858 0 c 0
 829.333 0 799.333 27.3333 768 82 c 1
 866 210 l 1
 906 176.667 941.667 160 973 160 c 0
 1027 160 1054 196.667 1054 270 c 0
 1054 324.667 1035.33 376.667 998 426 c 0
 957.333 478.667 910.667 505 858 505 c 0
 820 505 775 485.667 723 447 c 1
 723.667 440.333 724 433.667 724 427 c 0
 724 355.667 685 268 607 164 c 0
 525 54.6667 448 -3.46945e-18 376 0 c 0
 347.333 0 317.333 27.3333 286 82 c 1
 384 210 l 1
 424 176.667 459.333 160 490 160 c 0
 544 160 571 196.667 571 270 c 0
 571 325.333 552.667 377.333 516 426 c 0
 476 478.667 429.333 505 376 505 c 0
 325.333 505 266.667 474 200 412 c 1
 200 -452 l 2
 200 -547.333 137 -609.333 11 -638 c 1
 41.6667 -503.333 57 -365.333 57 -224 c 2
 57 1048 l 2
EndSplineSet
EndChar
StartChar: extended_ampa
Encoding: 45 77869
Width: 1260
Flags: HW
Fore
1054 270 m 0
 1054 324.667 1035.33 376.667 998 426 c 0
 957.333 478.667 910.667 505 858 505 c 0
 820 505 775 485.667 723 447 c 1
 723.667 441 724 434.667 724 428 c 0
 724 364.667 691.333 285.333 626 190 c 1
 1033 190 l 1
 1047 209.333 1054 236 1054 270 c 0
200 412 m 1
 200 190 l 1
 551 190 l 1
 564.333 209.333 571 236 571 270 c 0
 571 325.333 552.667 377.333 516 426 c 0
 476 478.667 429.333 505 376 505 c 0
 325.333 505 266.667 474 200 412 c 1
57 1048 m 2
 57 1093.33 38 1130.67 0 1160 c 1
 30.6667 1195.33 73.6667 1246.33 129 1313 c 1
 165 1284.33 188.667 1223.33 200 1130 c 1
 200 511 l 1
 294.667 607.667 392.333 656 493 656 c 0
 580.333 656 648 612.667 696 526 c 1
 786 612.667 879 656 975 656 c 0
 1032.33 656 1085.17 632.833 1133.5 586.5 c 0
 1181.83 540.167 1206 488.667 1206 432 c 0
 1206 366 1173.33 285.333 1108 190 c 1
 1138 190 1172.33 198.333 1211 215 c 1
 1211.67 213.667 1212 212.333 1212 211 c 0
 1212 175 1167.67 104.667 1079 0 c 1
 200 0 l 1
 200 -452 l 2
 200 -547.333 137 -609.333 11 -638 c 1
 41.6667 -503.333 57 -365.333 57 -224 c 2
 57 1048 l 2
EndSplineSet
EndChar
StartChar: extended_anca
Encoding: 46 77870
Width: 1260
Flags: HW
Fore
1154 895 m 2
 1154 -373 l 2
 1154 -418.333 1166.33 -456 1191 -486 c 1
 1061 -638 l 1
 1028.33 -585.333 1012 -531 1012 -475 c 1
 1011 144 l 1
 961.667 93.3333 917.333 57.6667 878 37 c 0
 831.333 12.3333 777.333 8.67362e-19 716 0 c 0
 628.667 0 561 44.3333 513 133 c 1
 463.667 85 420.667 51.6667 384 33 c 0
 340.667 11 289 0 229 0 c 0
 172.333 0 120 23.1667 72 69.5 c 0
 24 115.833 0 167.333 0 224 c 0
 0 300.667 38.6667 390.333 116 493 c 0
 197.333 601.667 274.667 656 348 656 c 0
 376.667 656 406.667 628.667 438 574 c 1
 340 446 l 1
 300 478.667 264.333 495 233 495 c 0
 179 495 152 458.667 152 386 c 0
 152 331.333 170.667 279.333 208 230 c 0
 248.667 177.333 295.333 151 348 151 c 0
 386.667 151 433.333 172 488 214 c 1
 488 224 l 2
 488 300.667 526.667 390.667 604 494 c 0
 684.667 602 761.667 656 835 656 c 0
 863.667 656 894 628.667 926 574 c 1
 827 446 l 1
 787.667 478.667 752.333 495 721 495 c 0
 667 495 640 458.667 640 386 c 0
 640 331.333 658.333 279.333 695 230 c 0
 735 177.333 781.667 151 835 151 c 0
 889 151 948 181.667 1012 243 c 1
 1012 1123 l 1
 1057.33 1175 1088.33 1209.67 1105 1227 c 0
 1150.33 1275 1182.33 1302.33 1201 1309 c 1
 1169.67 1174.33 1154 1036.33 1154 895 c 2
EndSplineSet
EndChar
StartChar: extended_unque
Encoding: 47 77871
Width: 1260
Flags: HW
Fore
602 489 m 1
 206 491 l 1
 170 478.333 152 443.333 152 386 c 0
 152 331.333 170.667 279.333 208 230 c 0
 248.667 177.333 295.333 151 348 151 c 0
 386.667 151 433.333 172 488 214 c 1
 488 224 l 2
 488 297.333 526 385.667 602 489 c 1
1012 682 m 1
 1012 1123 l 1
 1057.33 1175 1088.33 1209.67 1105 1227 c 0
 1150.33 1275 1182.33 1302.33 1201 1309 c 1
 1169.67 1174.33 1154 1036.33 1154 895 c 2
 1154 -373 l 2
 1154 -418.333 1166.33 -456 1191 -486 c 1
 1061 -638 l 1
 1028.33 -585.333 1012 -531 1012 -475 c 1
 1011 144 l 1
 961.667 93.3333 917.333 57.6667 878 37 c 0
 831.333 12.3333 777.333 8.67362e-19 716 0 c 0
 628.667 0 561 44.3333 513 133 c 1
 463.667 85 420.667 51.6667 384 33 c 0
 340.667 11 289 0 229 0 c 0
 172.333 0 120 23.1667 72 69.5 c 0
 24 115.833 0 167.333 0 224 c 0
 0 298 38.6667 387 116 491 c 1
 58.6667 491 20 485 0 473 c 1
 61.3333 611 113.333 680 156 680 c 2
 1012 682 l 1
1012 489 m 1
 687 488 l 1
 655.667 474 640 440 640 386 c 0
 640 331.333 658.333 279.333 695 230 c 0
 735 177.333 781.667 151 835 151 c 0
 889 151 948 181.667 1012 243 c 1
 1012 489 l 1
EndSplineSet
EndChar
StartChar: stemless_oore_(digit_zero)
Encoding: 48 77872
Width: 778
Flags: HW
Fore
0 377 m 1
 41.3333 491 92.3333 580.667 153 646 c 0
 177.667 672.667 238.333 686 335 686 c 0
 414.333 686 480.167 659 532.5 605 c 0
 584.833 551 611 484.333 611 405 c 0
 611 309.667 577.333 219.667 510 135 c 0
 438.667 45 356.667 0 264 0 c 0
 194 0 125.667 26.3333 59 79 c 1
 178 238 l 1
 180 238 208.667 224.833 264 198.5 c 0
 319.333 172.167 363.333 159 396 159 c 0
 450.667 159 478 195 478 267 c 0
 478 336.333 454.833 393.333 408.5 438 c 0
 362.167 482.667 304.333 505 235 505 c 0
 127 505 48.6667 462.333 0 377 c 1
EndSplineSet
EndChar
StartChar: stemless_vala
Encoding: 49 77873
Width: 768
Flags: HW
Fore
595 191 m 2
 644.333 191.667 678.667 197.667 698 209 c 1
 636.667 71 584.667 2 542 2 c 2
 0 0 l 1
 16.667 42.667 47.333 104.333 92 185 c 1
 429 189 l 1
 429.667 225.667 430 282 430 358 c 0
 430 447.333 380.667 492 282 492 c 0
 225.333 492 175.333 467.667 132 419 c 1
 230.667 594.333 312.333 682 377 682 c 0
 499 682 561.667 612 565 472 c 0
 566.333 420 566.333 326.333 565 191 c 1
 595 191 l 2
EndSplineSet
EndChar
StartChar: stemless_anna
Encoding: 50 77874
Width: 650
Flags: HW
Fore
611 309 m 1
 569 194.333 518 104.333 458 39 c 0
 434 13 373.333 0 276 0 c 0
 196.667 0 130.833 27 78.5 81 c 0
 26.1667 135 1.73472e-18 201.667 0 281 c 0
 0 375.667 34 465.667 102 551 c 0
 173.333 641 255.333 686 348 686 c 0
 417.333 686 485.333 659.333 552 606 c 1
 433 448 l 1
 428.333 448 403 460.667 357 486 c 0
 311 511.333 274.667 524 248 524 c 0
 198 524 165.333 515.333 150 498 c 0
 138.667 484.667 133 458.333 133 419 c 0
 133 349.667 156.167 292.667 202.5 248 c 0
 248.833 203.333 306.667 181 376 181 c 0
 484.667 181 563 223.667 611 309 c 1
EndSplineSet
EndChar
StartChar: stemless_vilya_(digit_one)
Encoding: 51 77875
Width: 768
Flags: HW
Fore
103 491 m 2
 53.6667 490.333 19.3333 484.333 0 473 c 1
 61.3333 611 113.333 680 156 680 c 2
 698 682 l 1
 681.333 639.333 650.667 577.667 606 497 c 1
 269 493 l 1
 268.333 456.333 268 400 268 324 c 0
 268 234.667 317.333 190 416 190 c 0
 472.667 190 522.667 214.333 566 263 c 1
 467.333 87.6667 385.667 6.93889e-18 321 0 c 0
 199 0 136.333 70 133 210 c 0
 131.667 262 131.667 355.667 133 491 c 1
 103 491 l 2
EndSplineSet
EndChar
StartChar: three_dots_above
Encoding: 64 77888
Width: 512
Flags: HW
Fore
169.5 1115 m 1
 276.5 1222 l 1
 355.5 1143 l 1
 248.5 1036 l 1
 169.5 1115 l 1
309.5 944 m 1
 416.5 1051 l 1
 495.5 972 l 1
 388.5 865 l 1
 309.5 944 l 1
16.5 941 m 1
 123.5 1048 l 1
 202.5 969 l 1
 95.5 862 l 1
 16.5 941 l 1
EndSplineSet
EndChar
StartChar: three_dots_below
Encoding: 65 77889
Width: 512
Flags: HW
Fore
342.5 -444 m 1
 235.5 -551 l 1
 156.5 -472 l 1
 263.5 -365 l 1
 342.5 -444 l 1
202.5 -273 m 1
 95.5 -380 l 1
 16.5 -301 l 1
 123.5 -194 l 1
 202.5 -273 l 1
495.5 -270 m 1
 388.5 -377 l 1
 309.5 -298 l 1
 416.5 -191 l 1
 495.5 -270 l 1
EndSplineSet
EndChar
StartChar: two_dots_above
Encoding: 66 77890
Width: 512
Flags: HW
Fore
319.5 944 m 1
 426.5 1051 l 1
 505.5 972 l 1
 398.5 865 l 1
 319.5 944 l 1
6.5 941 m 1
 113.5 1048 l 1
 192.5 969 l 1
 85.5 862 l 1
 6.5 941 l 1
EndSplineSet
EndChar
StartChar: two_dots_below
Encoding: 67 77891
Width: 512
Flags: HW
Fore
309.5 -348 m 1
 416.5 -241 l 1
 495.5 -320 l 1
 388.5 -427 l 1
 309.5 -348 l 1
16.5 -351 m 1
 123.5 -244 l 1
 202.5 -323 l 1
 95.5 -430 l 1
 16.5 -351 l 1
EndSplineSet
EndChar
StartChar: amaticse_(dot_above)
Encoding: 68 77892
Width: 256
Flags: HW
Fore
35 941 m 1
 142 1048 l 1
 221 969 l 1
 114 862 l 1
 35 941 l 1
EndSplineSet
EndChar
StartChar: nunticse_(dot_below)
Encoding: 69 77893
Width: 256
Flags: HW
Fore
35 -369 m 1
 142 -262 l 1
 221 -341 l 1
 114 -448 l 1
 35 -369 l 1
EndSplineSet
EndChar
StartChar: acute_(andaith,_long_mark)
Encoding: 70 77894
Width: 512
Flags: HW
Fore
447.5 1174 m 1
 64.5 746 l 1
 412.5 1224 l 1
 447.5 1174 l 1
EndSplineSet
EndChar
StartChar: double_acute
Encoding: 71 77895
Width: 768
Flags: HW
Fore
703.5 1174 m 5
 320.5 746 l 5
 668.5 1224 l 5
 703.5 1174 l 5
447.5 1174 m 1
 64.5 746 l 1
 412.5 1224 l 1
 447.5 1174 l 1
EndSplineSet
EndChar
StartChar: right_curl
Encoding: 72 77896
Width: 512
Flags: HW
Fore
468.5 1035 m 0
 423.833 975 370.5 914.333 308.5 853 c 1
 349.833 912.333 370.5 965.667 370.5 1013 c 0
 370.5 1052.33 349.5 1072 307.5 1072 c 0
 235.5 1072 132.167 954.333 -2.5 719 c 1
 52.167 837 109.5 942 169.5 1034 c 0
 267.5 1183.33 350.833 1258 419.5 1258 c 0
 482.833 1258 514.5 1227.33 514.5 1166 c 0
 514.5 1120 499.167 1076.33 468.5 1035 c 0
EndSplineSet
EndChar
StartChar: double_right_curl
Encoding: 73 77897
Width: 768
Flags: HW
Fore
724.5 1035 m 0
 679.833 975 626.5 914.333 564.5 853 c 1
 605.833 912.333 626.5 965.667 626.5 1013 c 0
 626.5 1052.33 605.5 1072 563.5 1072 c 0
 491.5 1072 388.167 954.333 253.5 719 c 1
 308.167 837 365.5 942 425.5 1034 c 0
 523.5 1183.33 606.833 1258 675.5 1258 c 0
 738.833 1258 770.5 1227.33 770.5 1166 c 0
 770.5 1120 755.167 1076.33 724.5 1035 c 0
468.5 1035 m 0
 423.833 975 370.5 914.333 308.5 853 c 1
 349.833 912.333 370.5 965.667 370.5 1013 c 0
 370.5 1052.33 349.5 1072 307.5 1072 c 0
 235.5 1072 132.167 954.333 -2.5 719 c 1
 52.167 837 109.5 942 169.5 1034 c 0
 267.5 1183.33 350.833 1258 419.5 1258 c 0
 482.833 1258 514.5 1227.33 514.5 1166 c 0
 514.5 1120 499.167 1076.33 468.5 1035 c 0
EndSplineSet
EndChar
StartChar: left_curl
Encoding: 74 77898
Width: 512
Flags: HW
Fore
101 1053 m 1
 159.667 1117.67 209.667 1150 251 1150 c 0
 269 1150 284.333 1143.67 297 1131 c 0
 309.667 1118.33 316 1103.33 316 1086 c 0
 316 1067.33 309 1045.33 295 1020 c 0
 247.667 933.333 162.667 833 40 719 c 1
 328 943.667 472 1113.67 472 1229 c 0
 472 1261 458.667 1287 432 1307 c 0
 413.333 1320.33 393.667 1327 373 1327 c 0
 305 1327 214.333 1235.67 101 1053 c 1
EndSplineSet
EndChar
StartChar: double_left_curl
Encoding: 75 77899
Width: 768
Flags: HW
Fore
357 1053 m 1
 415.667 1117.67 465.667 1150 507 1150 c 0
 525 1150 540.333 1143.67 553 1131 c 0
 565.667 1118.33 572 1103.33 572 1086 c 0
 572 1067.33 565 1045.33 551 1020 c 0
 503.667 933.333 418.667 833 296 719 c 1
 584 943.667 728 1113.67 728 1229 c 0
 728 1261 714.667 1287 688 1307 c 0
 669.333 1320.33 649.667 1327 629 1327 c 0
 561 1327 470.333 1235.67 357 1053 c 1
101 1053 m 1
 159.667 1117.67 209.667 1150 251 1150 c 0
 269 1150 284.333 1143.67 297 1131 c 0
 309.667 1118.33 316 1103.33 316 1086 c 0
 316 1067.33 309 1045.33 295 1020 c 0
 247.667 933.333 162.667 833 40 719 c 1
 328 943.667 472 1113.67 472 1229 c 0
 472 1261 458.667 1287 432 1307 c 0
 413.333 1320.33 393.667 1327 373 1327 c 0
 305 1327 214.333 1235.67 101 1053 c 1
EndSplineSet
EndChar
StartChar: nasalizer
Encoding: 76 77900
Width: 768
Flags: HW
Fore
694.5 901 m 1
 613.167 770.333 533.167 705 454.5 705 c 0
 421.167 705 375.333 714.333 317 733 c 0
 258.667 751.667 217.5 761 193.5 761 c 0
 152.167 761 112.167 742.667 73.5 706 c 1
 149.5 830.667 231.5 893 319.5 893 c 0
 345.5 893 382.667 885.5 431 870.5 c 0
 479.333 855.5 516.167 848 541.5 848 c 0
 588.167 848 639.167 865.667 694.5 901 c 1
EndSplineSet
EndChar
StartChar: doubler
Encoding: 77 77901
Width: 768
Flags: HW
Fore
694.5 -20 m 1
 613.167 -151.333 533.167 -217 454.5 -217 c 0
 421.167 -217 375.333 -207.667 317 -189 c 0
 258.667 -170.333 217.5 -161 193.5 -161 c 0
 152.167 -161 112.167 -179 73.5 -215 c 1
 149.5 -91 231.5 -29 319.5 -29 c 0
 344.833 -29 381.833 -36.333 430.5 -51 c 0
 479.167 -65.667 516.167 -73 541.5 -73 c 0
 588.167 -73 639.167 -55.333 694.5 -20 c 1
EndSplineSet
EndChar
StartChar: tilde
Encoding: 78 77902
Width: 512
Flags: HW
Fore
512.613 1135 m 0
 522.613 1111 435.613 981.333 251.613 746 c 1
 386.613 976 l 2
 387.946 977.333 388.613 978.667 388.613 980 c 0
 388.613 987.333 356.946 991 293.613 991 c 2
 62.6133 991 l 2
 19.9463 991 -1.38672 1021.67 -1.38672 1083 c 0
 -1.38672 1109.67 52.6133 1198.67 160.613 1350 c 1
 129.946 1279.33 114.613 1237.33 114.613 1224 c 0
 114.613 1184 146.28 1164 209.613 1164 c 0
 229.613 1164 262.446 1166.5 308.113 1171.5 c 0
 353.78 1176.5 386.946 1179 407.613 1179 c 0
 464.946 1179 499.946 1164.33 512.613 1135 c 0
EndSplineSet
EndChar
StartChar: breve
Encoding: 79 77903
Width: 512
Flags: HW
Fore
460 1125 m 1
 223 862 l 1
 52 1033 l 1
 159 1140 l 1
 291 1008 l 1
 442 1143 l 1
 460 1125 l 1
EndSplineSet
EndChar
StartChar: pusta_(putta,_stop)
Encoding: 80 77904
Width: 410
Flags: HW
Fore
56 320 m 1
 163 427 l 1
 242 348 l 1
 135 241 l 1
 56 320 l 1
EndSplineSet
EndChar
StartChar: double_pusta_(putta)
Encoding: 81 77905
Width: 410
Flags: HW
Fore
61 491 m 1
 168 598 l 1
 247 519 l 1
 140 412 l 1
 61 491 l 1
61 150 m 1
 168 257 l 1
 247 178 l 1
 140 71 l 1
 61 150 l 1
EndSplineSet
EndChar
StartChar: exclamation_mark
Encoding: 82 77906
Width: 284
Flags: HW
Fore
219 295 m 0
 219 191 170.667 92.6667 74 0 c 1
 94.6667 76 105 121.667 105 137 c 0
 105 183 87.5 245.833 52.5 325.5 c 0
 17.5 405.167 0 474.333 0 533 c 0
 0 569.667 20.3333 621 61 687 c 0
 100.333 750.333 136.667 793.667 170 817 c 1
 158.667 799 146.667 771.333 134 734 c 0
 120.667 694.667 114 665.667 114 647 c 0
 114 621.667 131.5 568.833 166.5 488.5 c 0
 201.5 408.167 219 343.667 219 295 c 0
EndSplineSet
EndChar
StartChar: question_mark
Encoding: 83 77907
Width: 600
Flags: HW
Fore
195 301 m 1
 195 156 l 1
 201 154.667 207.333 154 214 154 c 0
 249.333 154 284.333 168.667 319 198 c 0
 353.667 227.333 371 258.333 371 291 c 0
 371 321.667 343.333 337 288 337 c 0
 247.333 337 216.333 325 195 301 c 1
195 589 m 1
 195 450 l 1
 236.333 456 275.667 470.667 313 494 c 0
 357 522.667 379 554.667 379 590 c 0
 379 607.333 370.667 623.167 354 637.5 c 0
 337.333 651.833 317.667 659 295 659 c 0
 255.667 659 222.333 635.667 195 589 c 1
195 -225 m 2
 195 -292.333 132 -354.333 6 -411 c 1
 36.6667 -276.333 52 -138.333 52 3 c 2
 52 616 l 2
 52 661.333 33 699 -5 729 c 1
 49 789 115.667 852.667 195 920 c 1
 195 707 l 1
 273.667 791 341.333 833 398 833 c 0
 421.333 833 444.667 821.333 468 798 c 0
 491.333 774.667 503 751.333 503 728 c 0
 503 684.667 468 613.333 398 514 c 1
 468 486 503 443 503 385 c 0
 503 355 468.667 291.667 400 195 c 0
 337.333 105.667 289 46.3333 255 17 c 0
 244.333 7.66667 224.333 2 195 0 c 1
 195 -225 l 2
EndSplineSet
EndChar
StartChar: section_mark
Encoding: 84 77908
Width: 768
Flags: HW
Fore
620 484 m 1
 539.333 353.333 459.333 288 380 288 c 0
 346.667 288 301 297.333 243 316 c 0
 185 334.667 143.667 344 119 344 c 0
 78.3333 344 38.6667 325.667 0 289 c 1
 76 413 158 475 246 475 c 0
 271.333 475 308.167 467.667 356.5 453 c 0
 404.833 438.333 441.667 431 467 431 c 0
 514.333 431 565.333 448.667 620 484 c 1
EndSplineSet
EndChar
StartChar: long_section_mark
Encoding: 85 77909
Width: 1260
Flags: HW
Fore
1020 484 m 1
 922 355.333 791.667 291 629 291 c 0
 573.667 291 494.333 300.5 391 319.5 c 0
 287.667 338.5 215 348 173 348 c 0
 99 348 41.3333 328.333 0 289 c 1
 96 411.667 223 472.667 381 472 c 0
 428.333 472 500 464.667 596 450 c 0
 692 435.333 762.333 428 807 428 c 0
 891.667 428 962.667 446.667 1020 484 c 1
EndSplineSet
EndChar
StartChar: long_carrier_below
Encoding: 86 77910
Width: 256
Flags: HW
Fore
70.5 -224 m 2
 70.5 -365.333 61.5 -503.333 43.5 -638 c 1
 156.167 -612.667 212.5 -550.667 212.5 -452 c 2
 212.5 -30 l 1
 70.5 -80 l 1
 70.5 -224 l 2
EndSplineSet
EndChar
StartChar: double_acute_below
Encoding: 87 77911
Width: 512
Flags: HW
Fore
484 -124 m 1
 108 -558 l 1
 456 -80 l 1
 484 -124 l 1
404 -84 m 1
 28 -518 l 1
 376 -40 l 1
 404 -84 l 1
EndSplineSet
EndChar
StartChar: right_curl_below
Encoding: 88 77912
Width: 512
Flags: HW
Fore
384.5 -430 m 1
 357.833 -466.667 322.833 -485 279.5 -485 c 0
 240.167 -485 220.5 -467.667 220.5 -433 c 0
 220.5 -368.333 289.5 -251.333 427.5 -82 c 1
 198.833 -310.667 84.5 -471.333 84.5 -564 c 0
 84.5 -599.333 100.833 -624 133.5 -638 c 0
 142.833 -642 152.5 -644 162.5 -644 c 0
 224.5 -644 298.5 -572.667 384.5 -430 c 1
EndSplineSet
EndChar
StartChar: left_curl_below
Encoding: 90 77914
Width: 512
Flags: HW
Fore
150.5 -348 m 1
 144.5 -361.333 142.833 -378 145.5 -398 c 0
 148.833 -419.333 156.167 -434 167.5 -442 c 0
 174.167 -446.667 181.5 -449 189.5 -449 c 0
 242.167 -449 329.5 -326.667 451.5 -82 c 1
 419.5 -165.333 390.167 -238.667 363.5 -302 c 0
 299.5 -454 255.167 -543.333 230.5 -570 c 0
 193.833 -609.333 164.167 -629 141.5 -629 c 0
 119.5 -629 100.5 -620 84.5 -602 c 0
 68.5 -584 60.5 -564 60.5 -542 c 0
 60.5 -489.333 90.5 -424.667 150.5 -348 c 1
EndSplineSet
EndChar
StartChar: left_following_silme
Encoding: 92 77916
Width: 410
Flags: HW
Fore
354 1 m 1
 335.333 -39.6667 305.333 -99.6667 264 -179 c 1
 206 -281.667 143.333 -333 76 -333 c 0
 61.3333 -333 48.8333 -325.333 38.5 -310 c 0
 28.1667 -294.667 23 -279.333 23 -264 c 0
 23 -242.667 46 -192 92 -112 c 1
 132.667 -156 159 -178 171 -178 c 0
 211.667 -178 232 -168.333 232 -149 c 0
 232 -83 208.333 -39.6667 161 -19 c 0
 131.667 -6.33333 78 4.33681e-19 0 0 c 2
 -372 0 l 1
 -158 190 l 1
 72 190 l 2
 139.333 190 198.333 175 249 145 c 0
 307.667 110.333 342.667 62.3333 354 1 c 1
EndSplineSet
EndChar
StartChar: right_following_silme
Encoding: 93 77917
Width: 0
Flags: HW
Fore
-349 -234 m 1
 -407.667 -298.667 -457.667 -331 -499 -331 c 0
 -539 -331 -559 -312.333 -559 -275 c 0
 -559 -195 -420.667 -22 -144 244 c 1
 -261.333 152.667 -368.667 59 -466 -37 c 0
 -634 -203.667 -718 -328.667 -718 -412 c 0
 -718 -444 -705.333 -469.333 -680 -488 c 0
 -661.333 -501.333 -641.667 -508 -621 -508 c 0
 -553 -508 -462.333 -416.667 -349 -234 c 1
EndSplineSet
EndChar
StartChar: two
Encoding: 98 77922
Width: 1050
Flags: HW
Fore
1048 682 m 1
 1031.33 639.333 1000.67 577.667 956 497 c 1
 619 493 l 1
 618.333 456.333 618 400 618 324 c 0
 618 234.667 667.333 190 766 190 c 0
 822.667 190 872.667 214.333 916 263 c 1
 817.333 87.6667 735.667 6.93889e-18 671 0 c 0
 571 0 510.667 47 490 141 c 1
 424.667 47 368.333 0 321 0 c 0
 199 0 136.333 70 133 210 c 0
 131.667 262 131.667 355.667 133 491 c 1
 103 491 l 2
 53.6667 490.333 19.3333 484.333 0 473 c 1
 61.3333 611 113.333 680 156 680 c 2
 1048 682 l 1
269 493 m 1
 268.333 456.333 268 400 268 324 c 0
 268 234.667 317.333 190 416 190 c 0
 439.333 190 461.667 194.333 483 203 c 1
 481.667 249 481.667 345 483 491 c 1
 435.667 492.333 364.333 493 269 493 c 1
EndSplineSet
EndChar
StartChar: three
Encoding: 99 77923
Width: 1351
Flags: HW
Fore
269 493 m 1
 268.333 456.333 268 400 268 324 c 0
 268 234.667 317.333 190 416 190 c 0
 439.333 190 461.667 194.333 483 203 c 1
 481.667 249 481.667 345 483 491 c 1
 435.667 492.333 364.333 493 269 493 c 1
1352 682 m 1
 1335.33 639.333 1304.67 577.667 1260 497 c 1
 969 493 l 1
 968.333 456.333 968 400 968 324 c 0
 968 234.667 1017.33 190 1116 190 c 0
 1172.67 190 1222.67 214.333 1266 263 c 1
 1167.33 87.6667 1085.67 6.93889e-18 1021 0 c 0
 921 0 860.667 47 840 141 c 1
 774.667 47 718.333 0 671 0 c 0
 571 0 510.667 47 490 141 c 1
 424.667 47 368.333 0 321 0 c 0
 199 0 136.333 70 133 210 c 0
 131.667 262 131.667 355.667 133 491 c 1
 103 491 l 2
 53.6667 490.333 19.3333 484.333 0 473 c 1
 61.3333 611 113.333 680 156 680 c 2
 1352 682 l 1
619 493 m 1
 618.333 456.333 618 400 618 324 c 0
 618 234.667 667.333 190 766 190 c 0
 789.333 190 811.667 194.333 833 203 c 1
 831.667 249 831.667 345 833 491 c 1
 785.667 492.333 714.333 493 619 493 c 1
EndSplineSet
EndChar
StartChar: four
Encoding: 100 77924
Width: 768
Flags: HW
Fore
518 -190 m 0
 532 -190 554 -185 584 -175 c 0
 620 -163 643.667 -149.667 655 -135 c 1
 658.333 -107.667 647.333 -62.6667 622 0 c 1
 644.667 29.3333 674 72.6667 710 130 c 1
 760 120 785 83 785 19 c 0
 785 -58.3333 745.333 -141.5 666 -230.5 c 0
 586.667 -319.5 509.667 -364 435 -364 c 0
 326.333 -364 237.667 -334.333 169 -275 c 0
 94.3333 -210.333 57 -121.667 57 -9 c 2
 57 1048 l 2
 57 1093.33 38 1130.67 0 1160 c 1
 30.6667 1195.33 73.6667 1246.33 129 1313 c 1
 165 1284.33 188.667 1223.33 200 1130 c 1
 200 125 l 1
 205.333 40.3333 238.833 -33.3333 300.5 -96 c 0
 362.167 -158.667 434.667 -190 518 -190 c 0
EndSplineSet
EndChar
StartChar: five
Encoding: 101 77925
Width: 1050
Flags: HW
Fore
622 0 m 1
 501.333 1.33333 439.667 71.3333 437 210 c 0
 435.667 262 435.667 355.667 437 491 c 1
 200 491 l 1
 200 125 l 2
 200 41.6667 231.833 -31.6667 295.5 -95 c 0
 359.167 -158.333 433.333 -190 518 -190 c 0
 532 -190 554 -185 584 -175 c 0
 620 -163 643.667 -149.667 655 -135 c 1
 658.333 -107.667 647.333 -62.6667 622 0 c 1
200 680 m 1
 1002 682 l 1
 985.333 639.333 954.667 577.667 910 497 c 1
 573 493 l 1
 572.333 456.333 572 400 572 324 c 0
 572 234.667 621.333 190 720 190 c 0
 776.667 190 826.667 214.333 870 263 c 1
 830.667 193.667 794.333 138 761 96 c 1
 777 74.6667 785 49 785 19 c 0
 785 -58.3333 745.333 -141.5 666 -230.5 c 0
 586.667 -319.5 509.667 -364 435 -364 c 0
 326.333 -364 237.667 -334.333 169 -275 c 0
 94.3333 -210.333 57 -121.667 57 -9 c 2
 57 1048 l 2
 57 1093.33 38 1130.67 0 1160 c 1
 30.6667 1195.33 73.6667 1246.33 129 1313 c 1
 165 1284.33 188.667 1223.33 200 1130 c 1
 200 680 l 1
EndSplineSet
EndChar
StartChar: six
Encoding: 102 77926
Width: 1351
Flags: HW
Fore
622 0 m 1
 500 0 437.333 70 434 210 c 0
 432.667 262 432.667 355.667 434 491 c 1
 200 491 l 1
 200 125 l 2
 200 41.6667 231.833 -31.6667 295.5 -95 c 0
 359.167 -158.333 433.333 -190 518 -190 c 0
 532 -190 554 -185 584 -175 c 0
 620 -163 643.667 -149.667 655 -135 c 1
 658.333 -107.667 647.333 -62.6667 622 0 c 1
1349 682 m 1
 1332.33 639.333 1301.67 577.667 1257 497 c 1
 920 493 l 1
 919.333 456.333 919 400 919 324 c 0
 919 234.667 968.333 190 1067 190 c 0
 1123.67 190 1173.67 214.333 1217 263 c 1
 1118.33 87.6667 1036.67 6.93889e-18 972 0 c 0
 871.333 0 811 47 791 141 c 1
 780.333 125.667 770 111.333 760 98 c 1
 776.667 76.6667 785 50.3333 785 19 c 0
 785 -58.3333 745.333 -141.5 666 -230.5 c 0
 586.667 -319.5 509.667 -364 435 -364 c 0
 326.333 -364 237.667 -334.333 169 -275 c 0
 94.3333 -210.333 57 -121.667 57 -9 c 2
 57 1048 l 2
 57 1093.33 38 1130.67 0 1160 c 1
 30.6667 1195.33 73.6667 1246.33 129 1313 c 1
 165 1284.33 188.667 1223.33 200 1130 c 1
 200 680 l 1
 1349 682 l 1
570 493 m 1
 569.333 456.333 569 400 569 324 c 0
 569 234.667 618.333 190 717 190 c 0
 740.333 190 762.667 194.333 784 203 c 1
 782.667 249 782.667 345 784 491 c 1
 736 492.333 664.667 493 570 493 c 1
EndSplineSet
EndChar
StartChar: seven
Encoding: 103 77927
Width: 768
Flags: HW
Fore
388 -368 m 0
 316 -368 261.333 -350.333 224 -315 c 0
 182.667 -275.667 151 -206.667 129 -108 c 1
 95.6667 -126 52.6667 -177 0 -261 c 1
 0 -337 22 -399.333 66 -448 c 0
 112.667 -498.667 174 -523 250 -521 c 0
 382 -517.667 486.333 -461.667 563 -353 c 0
 632.333 -255.667 667 -138 667 0 c 2
 667 1130 l 1
 655.667 1223.33 632 1284.33 596 1313 c 1
 540.667 1246.33 497.667 1195.33 467 1160 c 1
 505 1130.67 524 1093.33 524 1048 c 2
 524 0 l 2
 524 -13.3333 525.167 -38.1667 527.5 -74.5 c 0
 529.833 -110.833 531 -139.333 531 -160 c 0
 531 -298.667 483.333 -368 388 -368 c 0
EndSplineSet
EndChar
StartChar: eight
Encoding: 104 77928
Width: 1260
Flags: HW
Fore
667 412 m 1
 667 190 l 1
 1022 190 l 1
 1032.67 208.667 1038 235.333 1038 270 c 0
 1038 325.333 1019.67 377.333 983 426 c 0
 943 478.667 896.333 505 843 505 c 0
 792.333 505 733.667 474 667 412 c 1
1057 0 m 1
 667 0 l 1
 667 -138 632.333 -255.667 563 -353 c 0
 486.333 -461.667 382 -517.667 250 -521 c 0
 174 -523 112.667 -498.667 66 -448 c 0
 22 -399.333 0 -337 0 -261 c 1
 15.3333 -236.333 30 -214.333 44 -195 c 0
 78.6667 -149 107 -120 129 -108 c 1
 151 -206.667 182.667 -275.667 224 -315 c 0
 261.333 -350.333 316 -368 388 -368 c 0
 483.333 -368 531 -298.667 531 -160 c 0
 531 -139.333 529.833 -110.833 527.5 -74.5 c 0
 525.167 -38.1667 524 -13.3333 524 0 c 2
 524 1048 l 2
 524 1093.33 505 1130.67 467 1160 c 1
 497.667 1195.33 540.667 1246.33 596 1313 c 1
 632 1284.33 655.667 1223.33 667 1130 c 1
 667 511 l 1
 717.667 562.333 762 598.333 800 619 c 0
 846 643.667 900 656 962 656 c 0
 1018 656 1070.17 632.667 1118.5 586 c 0
 1166.83 539.333 1191 488 1191 432 c 0
 1191 363.333 1160 282.667 1098 190 c 1
 1118.67 190.667 1149.33 199 1190 215 c 1
 1194 181.667 1149.67 110 1057 0 c 1
EndSplineSet
EndChar
StartChar: nine
Encoding: 105 77929
Width: 1720
Flags: HW
Fore
1093 190 m 1
 1500 190 l 1
 1514 209.333 1521 236 1521 270 c 0
 1521 324.667 1502.33 376.667 1465 426 c 0
 1424.33 478.667 1377.67 505 1325 505 c 0
 1287 505 1242 485.667 1190 447 c 1
 1190.67 441 1191 434.667 1191 428 c 0
 1191 364.667 1158.33 285.333 1093 190 c 1
1546 0 m 1
 667 0 l 1
 667 -138 632.333 -255.667 563 -353 c 0
 486.333 -461.667 382 -517.667 250 -521 c 0
 174 -523 112.667 -498.667 66 -448 c 0
 22 -399.333 0 -337 0 -261 c 1
 15.3333 -236.333 30 -214.333 44 -195 c 0
 78.6667 -149 107 -120 129 -108 c 1
 151 -206.667 182.667 -275.667 224 -315 c 0
 261.333 -350.333 316 -368 388 -368 c 0
 483.333 -368 531 -298.667 531 -160 c 0
 531 -139.333 529.833 -110.833 527.5 -74.5 c 0
 525.167 -38.1667 524 -13.3333 524 0 c 2
 524 1048 l 2
 524 1093.33 505 1130.67 467 1160 c 1
 497.667 1195.33 540.667 1246.33 596 1313 c 1
 632 1284.33 655.667 1223.33 667 1130 c 1
 667 511 l 1
 761.667 607.667 859.333 656 960 656 c 0
 1047.33 656 1115 612.667 1163 526 c 1
 1253 612.667 1346 656 1442 656 c 0
 1499.33 656 1552.17 633 1600.5 587 c 0
 1648.83 541 1673 489.333 1673 432 c 0
 1673 366 1640.33 285.333 1575 190 c 1
 1605 190 1639.33 198.333 1678 215 c 1
 1678.67 213.667 1679 212.333 1679 211 c 0
 1679 175 1634.67 104.667 1546 0 c 1
843 505 m 0
 792.333 505 733.667 474 667 412 c 1
 667 186 l 1
 1018 190 l 1
 1031.33 209.333 1038 236 1038 270 c 0
 1038 325.333 1019.67 377.333 983 426 c 0
 943 478.667 896.333 505 843 505 c 0
EndSplineSet
EndChar
StartChar: ten
Encoding: 106 77930
Width: 768
Flags: HW
Fore
238 0 m 0
 172.667 0 115.667 28.6667 67 86 c 0
 22.3333 138.667 -1.73472e-18 194 0 252 c 0
 0 300 15.6667 345.333 47 388 c 1
 78.3333 426.667 110 465.333 142 504 c 1
 142 494.667 137.667 476.833 129 450.5 c 0
 120.333 424.167 116 408.333 116 403 c 0
 116 343 145.667 290.333 205 245 c 0
 258.333 204.333 313 184 369 184 c 0
 409.667 184 441.667 200.667 465 234 c 0
 485 261.333 495 293.667 495 331 c 0
 495 435 378.667 723 146 1195 c 1
 146 1209 161 1236.67 191 1278 c 0
 223.667 1323.33 250.667 1346 272 1346 c 1
 511.333 865.333 631 570.667 631 462 c 0
 631 416 621.167 370.333 601.5 325 c 0
 581.833 279.667 572 257.333 572 258 c 0
 428 78 l 1
 376.667 26 313.333 0 238 0 c 0
EndSplineSet
EndChar
StartChar: eleven
Encoding: 107 77931
Width: 768
Flags: HW
Fore
631 -206 m 0
 631 -252 621.167 -297.667 601.5 -343 c 0
 581.833 -388.333 572 -410.667 572 -410 c 0
 428 -590 l 1
 376.667 -642 313.333 -668 238 -668 c 0
 172.667 -668 115.667 -639.333 67 -582 c 0
 22.3333 -529.333 -1.73472e-18 -474 0 -416 c 0
 0 -368 15.6667 -322.667 47 -280 c 1
 78.3333 -241.333 110 -202.667 142 -164 c 1
 142 -173.333 137.667 -191.167 129 -217.5 c 0
 120.333 -243.833 116 -259.667 116 -265 c 0
 116 -325 145.667 -377.667 205 -423 c 0
 258.333 -463.667 313 -484 369 -484 c 0
 409.667 -484 441.667 -467.333 465 -434 c 0
 485 -406.667 495 -374.333 495 -337 c 0
 495 -279.667 454.667 -155.667 374 35 c 1
 336 11.6667 290.667 -8.67362e-19 238 0 c 0
 172.667 0 115.667 28.6667 67 86 c 0
 22.3333 138.667 -1.73472e-18 194 0 252 c 0
 0 300 15.6667 345.333 47 388 c 1
 78.3333 426.667 110 465.333 142 504 c 1
 142 494.667 137.667 476.833 129 450.5 c 0
 120.333 424.167 116 408.333 116 403 c 0
 116 343 145.667 290.333 205 245 c 0
 258.333 204.333 313 184 369 184 c 0
 409.667 184 441.667 200.667 465 234 c 0
 485 261.333 495 293.667 495 331 c 0
 495 435 378.667 723 146 1195 c 1
 146 1209 161 1236.67 191 1278 c 0
 223.667 1323.33 250.667 1346 272 1346 c 1
 511.333 865.333 631 570.667 631 462 c 0
 631 405.333 618.667 353.333 594 306 c 0
 580.667 278.667 551.667 235 507 175 c 1
 589.667 -19 631 -146 631 -206 c 0
EndSplineSet
EndChar
StartChar: decimal_base_mark
Encoding: 108 77932
Width: 256
Flags: HW
Fore
35 941 m 1
 142 1048 l 1
 221 969 l 1
 114 862 l 1
 35 941 l 1
EndSplineSet
EndChar
StartChar: duodecimal_base_mark
Encoding: 109 77933
Width: 256
Flags: HW
Fore
35 -369 m 1
 142 -262 l 1
 221 -341 l 1
 114 -448 l 1
 35 -369 l 1
EndSplineSet
EndChar
StartChar: duodecimal_least_significant_digit_mark
Encoding: 110 77934
Width: 512
Flags: HW
Fore
473.5 -379 m 0
 473.5 -435 442.167 -502 379.5 -580 c 0
 313.5 -661.333 251.5 -702 193.5 -702 c 0
 143.5 -702 103.5 -678.667 73.5 -632 c 0
 50.167 -595.333 38.5 -557.667 38.5 -519 c 0
 38.5 -480.333 67.167 -423 124.5 -347 c 0
 187.833 -262.333 246.5 -220 300.5 -220 c 0
 341.167 -220 379.167 -234 414.5 -262 c 0
 453.833 -293.333 473.5 -332.333 473.5 -379 c 0
362.5 -526 m 1
 362.5 -488 346.167 -450.333 313.5 -413 c 0
 278.833 -373.667 242.167 -354 203.5 -354 c 0
 189.5 -354 176.333 -360.167 164 -372.5 c 0
 151.667 -384.833 145.5 -396.667 145.5 -408 c 0
 145.5 -440.667 161.833 -473.833 194.5 -507.5 c 0
 227.167 -541.167 260.833 -558 295.5 -558 c 0
 320.167 -558 342.5 -547.333 362.5 -526 c 1
EndSplineSet
EndChar
